<svg width="104" height="81" viewBox="0 0 104 81" fill="none" xmlns="http://www.w3.org/2000/svg">
<path d="M23.4172 49.4659H17.0346C9.31684 49.4659 3 55.7665 3 63.4757C3 71.1798 9.31684 77.4854 17.0346 77.4854H74.6246C82.3423 77.4854 88.6592 71.1798 88.6592 63.4757C88.6592 55.7715 82.3423 49.4659 74.6246 49.4659H66.6387" stroke="#066499" stroke-width="6" stroke-miterlimit="10"/>
<path d="M68.6569 52.6725C68.1006 40.4802 58.026 30.7667 45.6705 30.7667C33.315 30.7667 23.2404 40.4852 22.6841 52.6826" stroke="#066499" stroke-width="6" stroke-miterlimit="10"/>
<path d="M76.2481 41.8981C78.8426 40.4491 80.901 38.0359 81.8316 34.9714C83.7332 28.691 80.1778 22.0572 73.8812 20.1539C67.5846 18.2506 60.944 21.8048 59.0374 28.0902" stroke="#E4C41F" stroke-width="6" stroke-miterlimit="10"/>
<path d="M90.5557 24.218C93.3627 22.1683 96.1645 20.1186 98.9715 18.0739C99.6087 17.6094 99.9931 16.736 99.5177 16.004C99.108 15.3729 98.1269 14.9589 97.4441 15.4587C94.6372 17.5084 91.8353 19.5582 89.0284 21.6028C88.3911 22.0673 88.0068 22.9407 88.4822 23.6727C88.8918 24.3089 89.873 24.7178 90.5557 24.218Z" fill="#E4C41F"/>
<path d="M91.542 41.2367C95.0165 41.166 98.4911 41.0954 101.966 41.0247C102.785 41.0095 103.483 40.3381 103.483 39.5101C103.483 38.7023 102.79 37.9804 101.966 37.9955C98.4911 38.0662 95.0165 38.1369 91.542 38.2076C90.7227 38.2227 90.0248 38.8942 90.0248 39.7221C90.0248 40.5299 90.7177 41.2519 91.542 41.2367Z" fill="#E4C41F"/>
<path d="M57.0751 14.8428C54.9054 12.1317 52.7408 9.42062 50.5711 6.70954C50.0755 6.08857 48.9375 6.1542 48.4267 6.70954C47.8198 7.37091 47.8957 8.18877 48.4267 8.85014C50.5964 11.5612 52.761 14.2723 54.9307 16.9834C55.4263 17.6044 56.5643 17.5387 57.0751 16.9834C57.687 16.3271 57.6061 15.5092 57.0751 14.8428Z" fill="#E4C41F"/>
<path d="M77.3051 11.8591C77.6844 8.41092 78.0637 4.96274 78.443 1.51457C78.534 0.701751 77.6793 0 76.9257 0C76.0306 0 75.4995 0.696702 75.4085 1.51457C75.0292 4.96274 74.6499 8.41092 74.2705 11.8591C74.1795 12.6719 75.0342 13.3737 75.7878 13.3737C76.683 13.3737 77.214 12.677 77.3051 11.8591Z" fill="#E4C41F"/>
</svg>
