<svg width="241" height="233" viewBox="0 0 241 233" fill="none" xmlns="http://www.w3.org/2000/svg">
<path opacity="0.85" fill-rule="evenodd" clip-rule="evenodd" d="M67.8678 78.108C61.0979 78.108 54.1975 72.1212 54.1975 65.7866C54.1975 59.456 60.7637 53 67.5377 53C74.3035 53 81.0368 59.6057 81.0368 65.9363C81.0368 72.2749 74.6337 78.108 67.8678 78.108ZM41.1956 114.789C41.1956 108.612 41.1956 102.067 41.1956 95.7851C41.1956 89.5718 40.7554 90.1705 41.1956 86.2832C42.8871 81.5302 46.2741 79.9485 49.657 79.9485C56.8957 79.9485 59.2923 79.9485 64.8884 79.9485C71.6909 79.9485 74.9924 79.9283 81.7623 79.9283C85.1452 79.9283 87.3503 79.722 89.861 81.8538C93.2847 85.4863 92.9423 85.8018 92.9423 95.9388C92.9423 100.947 92.9423 109.688 92.9423 115.279C92.9423 120.282 93.8471 128.069 88.4915 128.069C83.4089 128.069 83.4578 124.675 83.4578 119.623C83.4578 112.483 83.4741 110.631 83.4741 106.416C83.4741 101.804 83.7554 101.024 82.765 101.024C81.7664 101.024 81.7786 101.084 81.7786 105.983C81.7786 110.521 81.8153 174.446 81.8153 178.139C81.8153 181.307 80.0097 184.701 74.9108 184.701C69.8283 184.701 67.7089 181.918 67.7089 178.75C67.7089 173.043 67.7089 148.198 67.7089 145.495C67.7089 142.328 67.5947 140.791 66.7551 140.791C65.9033 140.791 66.0133 142.324 66.0133 145.495C66.0133 148.351 66.0133 172.897 66.0133 178.75C66.0133 180.716 63.7798 185 58.7013 185C55.3143 185 52.2044 180.931 52.2044 178.819C52.2044 166.15 52.127 109.777 52.127 105.793C52.127 103.633 52.3267 100.89 51.4586 100.89C50.5986 100.89 50.6108 101.634 50.6108 104.749C50.6108 108.321 50.6108 111.937 50.6108 116.945C50.6108 125.274 49.2291 127.458 45.8421 127.458C40.7677 127.458 41.1956 119.324 41.1956 114.789Z" stroke="black" stroke-width="4" stroke-miterlimit="10"/>
<path opacity="0.85" fill-rule="evenodd" clip-rule="evenodd" d="M174.868 78.108C168.098 78.108 161.198 72.1212 161.198 65.7866C161.198 59.456 167.764 53 174.538 53C181.304 53 188.037 59.6057 188.037 65.9363C188.037 72.2749 181.634 78.108 174.868 78.108ZM148.196 114.789C148.196 108.612 148.196 102.067 148.196 95.7851C148.196 89.5718 147.755 90.1705 148.196 86.2832C149.887 81.5302 153.274 79.9485 156.657 79.9485C163.896 79.9485 166.292 79.9485 171.888 79.9485C178.691 79.9485 181.992 79.9283 188.762 79.9283C192.145 79.9283 194.35 79.722 196.861 81.8538C200.285 85.4863 199.942 85.8018 199.942 95.9388C199.942 100.947 199.942 109.688 199.942 115.279C199.942 120.282 200.847 128.069 195.491 128.069C190.409 128.069 190.458 124.675 190.458 119.623C190.458 112.483 190.474 110.631 190.474 106.416C190.474 101.804 190.755 101.024 189.765 101.024C188.766 101.024 188.779 101.084 188.779 105.983C188.779 110.521 188.815 174.446 188.815 178.139C188.815 181.307 187.01 184.701 181.911 184.701C176.828 184.701 174.709 181.918 174.709 178.75C174.709 173.043 174.709 148.198 174.709 145.495C174.709 142.328 174.595 140.791 173.755 140.791C172.903 140.791 173.013 142.324 173.013 145.495C173.013 148.351 173.013 172.897 173.013 178.75C173.013 180.716 170.78 185 165.701 185C162.314 185 159.204 180.931 159.204 178.819C159.204 166.15 159.127 109.777 159.127 105.793C159.127 103.633 159.327 100.89 158.459 100.89C157.599 100.89 157.611 101.634 157.611 104.749C157.611 108.321 157.611 111.937 157.611 116.945C157.611 125.274 156.229 127.458 152.842 127.458C147.768 127.458 148.196 119.324 148.196 114.789Z" stroke="black" stroke-width="4" stroke-miterlimit="10"/>
<line x1="109.479" y1="52.3091" x2="135.2" y2="83.5409" stroke="black" stroke-width="3"/>
<line x1="135.284" y1="81.9184" x2="111.186" y2="113.035" stroke="black" stroke-width="3"/>
<line x1="111.055" y1="110.934" x2="135.107" y2="134.735" stroke="black" stroke-width="3"/>
<line x1="135.559" y1="132.882" x2="108.213" y2="170.515" stroke="black" stroke-width="3"/>
<path opacity="0.4" fill-rule="evenodd" clip-rule="evenodd" d="M42.8483 27.2894C-8.02555 68.5605 -14.5343 141.755 28.3531 190.751C71.2406 239.747 147.27 245.991 198.144 204.72C249.018 163.449 255.526 90.2542 212.639 41.258C169.752 -7.73816 93.7574 -13.9817 42.8483 27.2894ZM51.1514 172.232C22.0555 139.004 23.1461 90.995 51.6791 59.1069L167.042 190.892C129.573 212.551 80.2473 205.461 51.1514 172.232ZM189.313 172.867L73.9496 41.0817C111.454 19.4232 160.78 26.5133 189.841 59.7419C218.937 92.9704 217.846 140.944 189.313 172.867Z" fill="#ED1C24" fill-opacity="0.5"/>
</svg>
