<svg width="241" height="232" viewBox="0 0 241 232" fill="none" xmlns="http://www.w3.org/2000/svg">
<g clip-path="url(#clip0)">
<path opacity="0.4" fill-rule="evenodd" clip-rule="evenodd" d="M42.8517 27.3021C-8.02214 68.5732 -14.5309 141.768 28.3566 190.764C71.244 239.76 147.273 246.004 198.147 204.733C249.021 163.461 255.53 90.2669 212.642 41.2707C169.755 -7.72547 93.7608 -13.969 42.8517 27.3021ZM51.1548 172.245C22.0589 139.016 23.1495 91.0077 51.6825 59.1196L167.046 190.905C129.577 212.563 80.2507 205.473 51.1548 172.245ZM189.316 172.88L73.9531 41.0944C111.458 19.4359 160.783 26.526 189.844 59.7546C218.94 92.9831 217.849 140.956 189.316 172.88Z" fill="#ED1C24" fill-opacity="0.5"/>
</g>
<path d="M79.7704 62.2792C75.4964 62.2433 70.4322 60.7707 66.3737 62.6743C60.9862 65.1884 59.4059 71.2942 57.9333 76.5021C53.6234 92.0538 50.2113 107.929 48.9183 124.055C48.0204 135.333 45.183 153.435 57.6819 159.217C63.7158 162.019 70.8632 162.917 77.364 164.174C86.0199 165.862 94.7475 167.191 103.475 168.34C120.5 170.603 137.632 172.111 154.728 173.728C166.616 174.841 183.138 179.402 188.884 165.359C191.255 159.577 191.506 152.896 192.117 146.79C193.086 137.308 193.661 127.791 193.841 118.237C193.984 111.269 194.128 104.158 193.805 97.1899C193.517 91.4433 192.404 86.7382 187.878 82.9311C182.635 78.5134 175.38 77.0049 168.915 75.3169C158.786 72.6591 148.55 70.3245 138.242 68.4209C118.991 64.8293 99.4166 62.6384 79.7704 62.2792C75.676 62.2074 75.676 68.5646 79.7704 68.6364C108.575 69.1392 137.129 73.6647 165 80.8121C170.603 82.2487 176.996 83.3621 181.988 86.415C187.986 90.1144 187.591 95.9688 187.627 102.254C187.627 115.866 187.448 129.443 186.19 143.019C185.652 149.017 185.508 155.482 183.676 161.265C180.983 169.777 173.62 169.13 166.221 168.412C152.357 167.047 138.458 165.862 124.594 164.389C110.91 162.953 97.2258 161.265 83.6853 158.822C77.4 157.673 71.1146 156.488 64.937 154.872C62.3151 154.189 59.5855 153.543 57.646 151.495C54.7009 148.443 55.0241 143.522 54.9163 139.499C54.4494 124.307 56.7481 109.114 60.0524 94.2807C61.5968 87.3847 62.8898 79.7705 65.5476 73.1978C68.4209 66.0505 73.5569 68.5287 79.8063 68.5646C83.8649 68.6723 83.8649 62.3152 79.7704 62.2792Z" fill="black" fill-opacity="0.75"/>
<path d="M150.202 89.1443C149.807 93.5261 149.412 97.8719 149.017 102.254C148.657 106.348 155.015 106.312 155.374 102.254C155.769 97.8719 156.164 93.5261 156.559 89.1443C156.954 85.0498 150.597 85.0858 150.202 89.1443Z" fill="black" fill-opacity="0.75"/>
<path d="M152.751 92.4126C158.498 92.7359 164.209 93.0591 169.919 93.4901C171.356 93.5978 172.793 93.7056 174.193 93.8133C176.492 93.7774 177.282 94.7472 176.6 96.6507C177.246 98.9494 175.881 102.757 175.379 105.091C174.517 109.078 180.658 110.802 181.52 106.779C182.562 101.859 185.794 90.9401 179.437 88.2463C175.989 86.8097 171.392 87.2047 167.764 86.9173C162.772 86.5582 157.744 86.2709 152.715 85.9836C148.657 85.8399 148.693 92.1972 152.751 92.4126Z" fill="black" fill-opacity="0.75"/>
<path d="M150.921 106.097C160.223 105.451 169.202 106.528 178.074 109.401C181.988 110.659 183.641 104.517 179.762 103.26C170.387 100.207 160.762 99.0217 150.885 99.7041C146.826 100.027 146.826 106.385 150.921 106.097Z" fill="black" fill-opacity="0.75"/>
<path d="M118.596 87.3127C109.797 86.4148 103.009 86.5225 96.2563 92.9156C90.3301 98.5545 86.1997 106.743 84.7631 114.717C81.5665 132.495 95.0351 147.724 112.383 150.31C152.465 156.308 155.159 86.1633 116.01 87.3127C111.916 87.4204 111.916 93.8135 116.01 93.6698C147.904 92.7001 143.594 152.68 110.192 143.342C96.6154 139.535 87.8159 127.575 91.5153 113.496C93.0597 107.569 96.2563 101.643 100.746 97.3692C106.097 92.2691 111.844 92.9516 118.596 93.634C122.655 94.1009 122.655 87.7077 118.596 87.3127Z" fill="black" fill-opacity="0.75"/>
<path d="M78.6214 64.5419C78.9087 61.4172 79.2319 58.3283 79.5193 55.2036C78.4418 56.2811 77.4002 57.3227 76.3227 58.4002C82.8236 58.2565 89.3244 58.4361 95.8253 59.1185C97.8007 59.334 105.666 59.1903 107.031 60.8065C108.324 62.3509 107.426 64.506 107.498 66.3736C107.642 70.4681 113.999 70.4681 113.855 66.3736C113.748 63.3926 115.076 60.5911 113.496 57.8255C111.952 55.0959 109.15 54.7727 106.313 54.2339C96.4358 52.4022 86.3434 51.8275 76.2868 52.043C74.4551 52.0789 73.2698 53.4797 73.0902 55.2396C72.8029 58.3643 72.4797 61.4531 72.1923 64.5778C71.8691 68.6005 78.2263 68.5645 78.6214 64.5419Z" fill="black" fill-opacity="0.75"/>
<path d="M50.93 135.584C65.1529 138.385 79.5194 140.074 94.0296 140.612C98.1241 140.756 98.1241 134.399 94.0296 134.255C80.0941 133.716 66.3022 132.136 52.6181 129.442C48.5955 128.652 46.9074 134.794 50.93 135.584Z" fill="black" fill-opacity="0.75"/>
<path d="M133.646 145.676C150.849 148.586 168.089 151.531 185.293 154.44C189.316 155.122 191.04 148.981 186.981 148.298C169.777 145.389 152.538 142.444 135.334 139.535C131.347 138.852 129.623 144.994 133.646 145.676Z" fill="black" fill-opacity="0.75"/>
<path d="M59.1914 97.908C70.8283 98.6622 82.3575 100.099 93.8148 102.218C97.8374 102.972 99.5255 96.8305 95.5028 96.0762C83.4709 93.8494 71.3671 92.305 59.1914 91.5149C55.097 91.2994 55.097 97.6566 59.1914 97.908Z" fill="black" fill-opacity="0.75"/>
<path d="M140.074 112.275C156.488 113.316 172.794 115.22 188.992 118.021C193.015 118.704 194.739 112.562 190.68 111.88C173.907 109.006 157.063 106.995 140.074 105.918C135.98 105.666 135.98 112.024 140.074 112.275Z" fill="black" fill-opacity="0.75"/>
<defs>
<clipPath id="clip0">
<rect width="241" height="232" fill="white"/>
</clipPath>
</defs>
</svg>
