<svg width="241" height="232" viewBox="0 0 241 232" fill="none" xmlns="http://www.w3.org/2000/svg">
<path d="M164.563 116.027C160.528 119.723 150.604 106.287 148.811 101.594C147.023 96.9069 157.762 92.5733 158.119 86.0839C158.475 79.589 155.969 76.3442 155.969 76.3442C155.969 76.3442 157.4 81.3964 154.537 84.2818C151.674 87.1673 139.859 83.5578 138.071 80.313C136.283 77.0683 140.221 73.8181 143.084 75.2608C145.948 76.7035 148.811 77.4276 149.886 77.0629C150.961 76.7035 147.379 69.4846 149.167 66.2399C150.955 62.9951 156.687 60.8283 159.55 61.5524C162.413 62.2765 169.215 78.511 171.008 82.1151C172.796 85.7246 164.207 91.8547 163.132 96.5476C162.057 101.24 168.502 112.423 164.563 116.027Z" fill="white"/>
<path d="M163.55 114.921L163.551 114.92C164.065 114.45 164.38 113.611 164.35 112.154C164.321 110.713 163.958 108.976 163.469 107.069C163.301 106.417 163.116 105.735 162.928 105.046C162.591 103.804 162.247 102.539 161.991 101.389C161.599 99.6212 161.319 97.7459 161.67 96.2126C162.009 94.7329 162.899 93.2671 163.85 91.9445C164.556 90.9628 165.378 89.952 166.159 88.9931C166.438 88.65 166.712 88.3136 166.973 87.9875C168.005 86.6987 168.848 85.5616 169.338 84.5689C169.842 83.5488 169.795 83.045 169.664 82.7809C169.303 82.0547 168.749 80.8419 168.085 79.3868C167.898 78.9779 167.703 78.5499 167.5 78.1082C166.567 76.071 165.467 73.6986 164.337 71.4205C163.202 69.1344 162.056 66.9811 161.03 65.3688C160.516 64.5596 160.058 63.9279 159.671 63.4938C159.317 63.0961 159.143 63.0043 159.146 62.9982C159.146 62.9981 159.147 62.998 159.147 62.9979C158.167 62.7664 156.403 62.997 154.543 63.7882C152.678 64.5811 151.146 65.7573 150.481 66.9638C150.236 67.4076 150.112 68.128 150.174 69.1605C150.233 70.1648 150.455 71.2797 150.718 72.3856C150.811 72.7768 150.916 73.1877 151.018 73.5909C151.185 74.2475 151.346 74.8836 151.446 75.3804C151.527 75.7848 151.604 76.2553 151.589 76.6809C151.582 76.8921 151.549 77.2105 151.402 77.5368C151.235 77.9042 150.906 78.3021 150.364 78.4844C149.808 78.6725 149.186 78.6783 148.646 78.6328C148.073 78.5844 147.437 78.4635 146.776 78.2909C145.454 77.9452 143.923 77.3631 142.409 76.6004C141.666 76.2256 140.628 76.4106 139.854 77.1289C139.13 77.8001 138.89 78.6918 139.385 79.5891C139.609 79.995 140.341 80.6578 141.702 81.3846C142.99 82.0722 144.614 82.6985 146.289 83.1474C147.97 83.5976 149.629 83.8501 150.992 83.8354C152.439 83.8197 153.192 83.5074 153.472 83.2253C154.498 82.1918 154.827 80.6865 154.827 79.231C154.827 78.5254 154.748 77.8915 154.669 77.4337C154.63 77.2064 154.591 77.0265 154.564 76.9078C154.55 76.8486 154.539 76.8049 154.532 76.7785L154.525 76.7523C154.525 76.7523 154.525 76.7524 154.529 76.7514L157.156 75.4272L155.969 76.3442C157.156 75.4272 157.156 75.4278 157.157 75.4285L157.158 75.4298L157.16 75.4327L157.165 75.4393L157.178 75.4563C157.187 75.4693 157.199 75.4856 157.214 75.5052C157.242 75.5444 157.279 75.5967 157.322 75.6623C157.41 75.7934 157.526 75.9774 157.66 76.2143C157.928 76.6882 158.267 77.3742 158.589 78.2721C159.235 80.0721 159.806 82.7068 159.616 86.1661L159.616 86.1661C159.505 88.1984 158.585 89.9668 157.469 91.4776C156.396 92.9294 155.044 94.2671 153.843 95.4551C153.8 95.4972 153.758 95.5392 153.716 95.5809C152.431 96.8523 151.373 97.9193 150.717 98.9253C150.08 99.9021 150.01 100.53 150.212 101.06L163.55 114.921ZM163.55 114.921C163.266 115.181 162.707 115.387 161.357 114.667M163.55 114.921L161.357 114.667M161.357 114.667C160.053 113.972 158.514 112.638 156.95 110.94M161.357 114.667L156.95 110.94M156.95 110.94C153.817 107.54 151.018 103.168 150.212 101.06L156.95 110.94ZM154.525 76.7521L154.525 76.7515L154.525 76.7503L154.524 76.7492C154.524 76.7494 154.525 76.7504 154.525 76.7521Z" stroke="black" stroke-opacity="0.75" stroke-width="3"/>
<path d="M146.63 62.614C150.942 62.614 154.437 59.1187 154.437 54.807C154.437 50.4953 150.942 47 146.63 47C142.319 47 138.823 50.4953 138.823 54.807C138.823 59.1187 142.319 62.614 146.63 62.614Z" fill="white"/>
<path d="M152.937 54.807C152.937 58.2903 150.114 61.114 146.63 61.114C143.147 61.114 140.323 58.2903 140.323 54.807C140.323 51.3237 143.147 48.5 146.63 48.5C150.114 48.5 152.937 51.3237 152.937 54.807Z" stroke="black" stroke-opacity="0.75" stroke-width="3"/>
<path d="M203.311 162.817C199.276 166.513 189.352 153.077 187.558 148.384C185.77 143.697 196.51 139.363 196.866 132.874C197.223 126.379 194.716 123.134 194.716 123.134C194.716 123.134 196.148 128.186 193.285 131.072C190.421 133.957 178.607 130.348 176.819 127.103C175.031 123.858 178.969 120.608 181.832 122.051C184.695 123.494 187.558 124.218 188.633 123.853C189.708 123.494 186.127 116.275 187.915 113.03C189.703 109.785 195.435 107.618 198.298 108.342C201.161 109.067 207.962 125.301 209.756 128.905C211.544 132.515 202.954 138.645 201.879 143.338C200.804 148.031 207.249 159.213 203.311 162.817Z" fill="white"/>
<path d="M202.298 161.711L202.298 161.71C202.813 161.24 203.128 160.401 203.098 158.944C203.068 157.503 202.706 155.766 202.216 153.859C202.049 153.207 201.863 152.525 201.676 151.836C201.338 150.594 200.994 149.329 200.739 148.179C200.347 146.411 200.066 144.536 200.417 143.003C200.756 141.523 201.646 140.057 202.597 138.735C203.303 137.753 204.126 136.742 204.906 135.783C205.186 135.44 205.459 135.104 205.72 134.778C206.752 133.489 207.596 132.352 208.086 131.359C208.589 130.339 208.543 129.835 208.412 129.571C208.05 128.845 207.497 127.632 206.832 126.177C206.646 125.768 206.45 125.34 206.248 124.898C205.315 122.861 204.215 120.489 203.084 118.211C201.95 115.924 200.803 113.771 199.778 112.159C199.263 111.35 198.805 110.718 198.419 110.284C198.064 109.886 197.891 109.794 197.894 109.788C197.894 109.788 197.894 109.788 197.894 109.788C196.915 109.556 195.15 109.787 193.29 110.578C191.426 111.371 189.893 112.547 189.229 113.754C188.984 114.198 188.86 114.918 188.921 115.951C188.981 116.955 189.202 118.07 189.466 119.176C189.559 119.567 189.663 119.978 189.766 120.381C189.932 121.038 190.094 121.674 190.194 122.17C190.275 122.575 190.352 123.045 190.337 123.471C190.329 123.682 190.297 124.001 190.149 124.327C189.983 124.694 189.654 125.092 189.112 125.274C188.555 125.463 187.934 125.468 187.394 125.423C186.82 125.374 186.184 125.254 185.524 125.081C184.201 124.735 182.671 124.153 181.157 123.39C180.413 123.016 179.376 123.201 178.601 123.919C177.878 124.59 177.638 125.482 178.132 126.379C178.356 126.785 179.089 127.448 180.45 128.175C181.737 128.862 183.362 129.489 185.037 129.937C186.717 130.388 188.377 130.64 189.739 130.625C191.187 130.61 191.94 130.297 192.22 130.015C193.245 128.982 193.574 127.477 193.574 126.021C193.574 125.315 193.496 124.682 193.417 124.224C193.378 123.996 193.339 123.817 193.311 123.698C193.298 123.639 193.287 123.595 193.28 123.569L193.273 123.542C193.273 123.542 193.273 123.542 193.277 123.541L195.903 122.217L194.716 123.134C195.903 122.217 195.904 122.218 195.904 122.219L195.905 122.22L195.907 122.223L195.912 122.229L195.925 122.246C195.935 122.259 195.947 122.276 195.961 122.295C195.989 122.334 196.026 122.387 196.07 122.452C196.158 122.583 196.274 122.767 196.408 123.004C196.676 123.478 197.015 124.164 197.337 125.062C197.982 126.862 198.554 129.497 198.364 132.956L198.364 132.956C198.252 134.988 197.333 136.757 196.216 138.268C195.143 139.719 193.791 141.057 192.59 142.245C192.548 142.287 192.505 142.329 192.463 142.371C191.179 143.642 190.121 144.709 189.465 145.715C188.828 146.692 188.758 147.32 188.96 147.85L202.298 161.711ZM202.298 161.711C202.014 161.971 201.454 162.177 200.105 161.457M202.298 161.711L200.105 161.457M200.105 161.457C198.8 160.762 197.261 159.428 195.697 157.73M200.105 161.457L195.697 157.73M195.697 157.73C192.564 154.33 189.766 149.958 188.96 147.85L195.697 157.73ZM193.273 123.542L193.273 123.542L193.272 123.54L193.272 123.539C193.272 123.539 193.272 123.54 193.273 123.542Z" stroke="black" stroke-opacity="0.75" stroke-width="3"/>
<path d="M185.378 109.404C189.69 109.404 193.185 105.909 193.185 101.597C193.185 97.2854 189.69 93.79 185.378 93.79C181.066 93.79 177.571 97.2854 177.571 101.597C177.571 105.909 181.066 109.404 185.378 109.404Z" fill="white"/>
<path d="M191.685 101.597C191.685 105.08 188.861 107.904 185.378 107.904C181.895 107.904 179.071 105.08 179.071 101.597C179.071 98.1138 181.895 95.29 185.378 95.29C188.861 95.29 191.685 98.1138 191.685 101.597Z" stroke="black" stroke-opacity="0.75" stroke-width="3"/>
<path d="M117.706 58.6973L36 167.63H199.42L117.706 58.6973Z" stroke="black" stroke-opacity="0.75" stroke-width="5" stroke-miterlimit="10" stroke-linecap="round" stroke-linejoin="round"/>
<path d="M91.6719 93.2766L108.893 110.502L115.233 104.163L129.412 118.341L148.31 99.452" stroke="black" stroke-opacity="0.75" stroke-width="5" stroke-miterlimit="10" stroke-linecap="round" stroke-linejoin="round"/>
<g clip-path="url(#clip0)">
<path opacity="0.4" fill-rule="evenodd" clip-rule="evenodd" d="M42.8517 27.3021C-8.02214 68.5732 -14.5309 141.768 28.3566 190.764C71.244 239.76 147.273 246.004 198.147 204.733C249.021 163.461 255.53 90.2669 212.642 41.2707C169.755 -7.72547 93.7608 -13.969 42.8517 27.3021ZM51.1548 172.245C22.0589 139.016 23.1495 91.0077 51.6825 59.1196L167.046 190.905C129.577 212.563 80.2507 205.473 51.1548 172.245ZM189.316 172.88L73.9531 41.0944C111.458 19.4359 160.783 26.526 189.844 59.7546C218.94 92.9831 217.849 140.956 189.316 172.88Z" fill="#ED1C24" fill-opacity="0.5"/>
</g>
<defs>
<clipPath id="clip0">
<rect width="241" height="232" fill="white"/>
</clipPath>
</defs>
</svg>
