<svg width="241" height="232" viewBox="0 0 241 232" fill="none" xmlns="http://www.w3.org/2000/svg">
<g clip-path="url(#clip0)">
<path opacity="0.4" fill-rule="evenodd" clip-rule="evenodd" d="M42.8519 27.3021C-8.02201 68.5732 -14.5308 141.768 28.3567 190.764C71.2441 239.76 147.273 246.004 198.147 204.733C249.021 163.461 255.53 90.2669 212.643 41.2707C169.755 -7.72547 93.7609 -13.969 42.8519 27.3021ZM51.1549 172.245C22.059 139.016 23.1497 91.0077 51.6827 59.1196L167.046 190.905C129.577 212.563 80.2508 205.473 51.1549 172.245ZM189.317 172.88L73.9532 41.0944C111.458 19.4359 160.784 26.526 189.844 59.7546C218.94 92.9831 217.85 140.956 189.317 172.88Z" fill="#ED1C24" fill-opacity="0.5"/>
<g clip-path="url(#clip1)">
<path d="M195.001 165.729C195.001 165.663 194.997 165.597 194.991 165.531C194.473 160.344 192.247 156.278 188.376 153.451C185.409 151.284 181.594 149.859 176.378 148.964C164.149 146.87 160.05 145.7 158.111 144.921L148.263 119.135L161.362 100.703C161.705 100.222 161.817 99.6093 161.666 99.0393C161.514 98.4693 161.118 97.9921 160.581 97.7436L158.22 96.65L180.015 72.3818C180.747 71.5666 180.684 70.3106 179.873 69.5749C179.062 68.8392 177.812 68.9022 177.08 69.7174L154.461 94.9035L152.394 93.9458C143.943 90.0254 133.837 93.0411 128.882 100.955L124.091 108.61L122.182 108.421C113.777 107.586 106.282 103.573 101.076 97.1206C97.3174 92.4611 95.1181 86.9301 94.6499 81.144C97.8548 79.8548 105.864 76.1432 113.612 68.6271C123.23 59.295 131.368 46.6025 131.707 46.0657C132.297 45.1411 132.03 43.9116 131.11 43.3184C130.191 42.7252 128.967 42.9936 128.377 43.9182C128.295 44.0442 120.141 56.7598 110.862 65.7639C104.647 71.7953 98.145 75.2385 94.6202 76.8259C94.6466 76.4249 94.6796 76.0206 94.7225 75.6163C94.9335 73.6909 93.9344 71.8881 92.1803 71.0198C90.4097 70.1482 88.3621 70.4399 86.9246 71.7621L56.7485 94.708C55.5648 95.6094 54.5393 96.6566 53.6854 97.8099C49.3001 100.411 46.2535 104.71 45.3105 109.677C44.4927 113.969 45.3434 118.174 47.5822 120.928L56.2143 131.546C58.4202 134.257 61.5327 136.013 64.9849 136.494C68.602 136.997 71.2002 140.132 70.8968 143.632C70.5077 148.175 72.4069 152.57 75.9811 155.38L106.701 179.559C113.058 184.937 121.189 188.198 129.597 188.738C129.64 188.742 129.683 188.742 129.722 188.742C129.729 188.742 129.736 188.742 129.739 188.742L167.555 188.404C179.889 188.404 188.047 185.961 191.796 181.139C193.823 178.531 194.46 175.38 193.695 171.768C194.529 169.922 195.001 167.88 195.001 165.729ZM191.044 165.826C190.988 171.83 185.913 176.695 179.678 176.695H150.069C152.743 173.786 156.519 172.039 160.555 171.983L167.261 171.887C169.658 171.854 171.877 170.863 173.509 169.1C175.141 167.337 175.966 165.04 175.831 162.638C175.718 160.686 176.783 158.886 178.541 158.048L184.021 155.443C188.307 157.667 190.539 161.034 191.044 165.826ZM178.795 153.534L176.853 154.455C173.631 155.986 171.679 159.287 171.884 162.866C171.96 164.179 171.508 165.431 170.618 166.392C169.727 167.353 168.514 167.893 167.208 167.913L160.502 168.009C154.217 168.099 148.424 171.396 145.101 176.699H143.023C135.288 176.699 127.652 174.893 120.797 171.559C126.339 162.346 127.991 150.276 125.561 136.474C124.331 129.481 122.353 123.642 121.031 120.212C122.811 120.408 124.651 120.534 126.544 120.587C127.282 120.607 128.011 120.617 128.727 120.617C135.638 120.617 141.371 119.715 144.049 119.208L144.764 121.084H137.988C136.897 121.084 136.01 121.975 136.01 123.072C136.01 124.169 136.897 125.061 137.988 125.061H146.281L147.504 128.265H142.298C141.207 128.265 140.32 129.157 140.32 130.254C140.32 131.35 141.207 132.242 142.298 132.242H149.021L150.244 135.447H144.606C143.515 135.447 142.628 136.338 142.628 137.435C142.628 138.532 143.515 139.423 144.606 139.423H151.764L152.987 142.628H147.573C146.482 142.628 145.595 143.519 145.595 144.616C145.595 145.713 146.482 146.605 147.573 146.605H153.937L153.835 146.79C152.282 149.597 152.48 152.954 154.356 155.552C155.915 157.713 158.326 158.929 160.897 158.929C161.422 158.929 161.953 158.88 162.487 158.773C167.347 157.826 171.604 155.814 175.161 152.792C175.343 152.825 175.521 152.855 175.705 152.885C176.803 153.073 177.825 153.289 178.795 153.534ZM116.487 119.543C118.687 124.739 128.769 150.949 117.302 169.68C113.912 167.688 110.763 165.302 107.944 162.558L82.3249 137.597C88.1841 132.083 91.1318 125.723 91.0955 118.665C91.056 111.261 87.7785 103.357 81.349 95.1719C78.4046 91.4239 75.4865 88.5175 73.6632 86.8208L83.9208 79.0197C83.1196 85.3361 83.9933 96.1164 94.6367 108.149C99.7474 113.936 107.196 117.796 116.487 119.543ZM157.238 148.845C159.213 149.571 162.549 150.472 169.747 151.821C167.36 153.272 164.683 154.296 161.738 154.87C160.103 155.188 158.543 154.571 157.567 153.216C156.618 151.9 156.502 150.276 157.238 148.845ZM132.228 103.069C136.129 96.8389 144.085 94.4661 150.735 97.5514L156.756 100.345L146.35 114.989C144.448 112.183 141.362 110.323 137.82 109.972L128.492 109.044L132.228 103.069ZM90.4361 74.5923C90.7163 74.6751 90.8186 74.9203 90.7889 75.1821C89.8261 83.984 92.3847 92.6633 97.9999 99.6226C103.876 106.907 112.323 111.437 121.789 112.375L137.428 113.929C138.961 114.081 140.389 114.685 141.546 115.603C133.01 116.958 109.669 119.165 97.5976 105.515C91.5011 98.6218 88.0852 91.1356 87.7225 83.8713C87.5246 79.9112 88.2797 76.9883 88.7215 75.6594C88.8534 75.2584 89.1172 74.9038 89.4898 74.7016C89.7404 74.5624 90.0635 74.4829 90.4361 74.5923ZM59.1324 97.8795L70.4517 89.2731C74.405 92.8754 87.0795 105.458 87.1389 118.701C87.1652 124.646 84.5868 130.065 79.4762 134.827L58.008 113.912C56.0264 111.987 54.8757 109.435 54.7669 106.724C54.6383 103.364 56.2704 100.057 59.1324 97.8795ZM167.531 184.43L129.772 184.768C122.215 184.268 114.921 181.332 109.22 176.5C109.201 176.483 109.184 176.47 109.164 176.453L78.4177 152.255C75.902 150.273 74.5633 147.181 74.837 143.977C75.3184 138.366 71.2265 133.349 65.5224 132.557C63.0626 132.215 60.8469 130.963 59.2741 129.031L50.642 118.413C49.1583 116.587 48.6011 113.525 49.1913 110.423C49.4847 108.888 50.0387 107.437 50.8135 106.118C50.8102 106.373 50.8102 106.628 50.8201 106.883C50.9685 110.622 52.5445 114.134 55.2614 116.772L105.191 165.418C115.29 175.257 128.727 180.675 143.027 180.675H179.682C183.45 180.675 186.906 179.337 189.577 177.126C189.356 177.68 189.056 178.203 188.673 178.697C185.795 182.392 178.294 184.43 167.531 184.43Z" fill="black" fill-opacity="0.75"/>
</g>
</g>
<defs>
<clipPath id="clip0">
<rect width="241" height="232" fill="white"/>
</clipPath>
<clipPath id="clip1">
<rect width="150" height="145.745" fill="white" transform="translate(45 43)"/>
</clipPath>
</defs>
</svg>
