<svg width="89" height="111" viewBox="0 0 89 111" fill="none" xmlns="http://www.w3.org/2000/svg">
<path fill-rule="evenodd" clip-rule="evenodd" d="M86.2698 56.9328L71.842 60.0573L70.6449 77.369L81.6286 105.173L74.7822 108.53L62.6435 83.5758L61.2994 70.3388L55.6081 81.1269L54.243 108.15L45.8425 108.424L46.3885 79.8179L54.516 56.0672L52.3529 42.3023L46.3885 46.0813L41.3902 47.8547L40.9702 49.5859H45.0444V59.044H36.644L40.7182 78.2134H34.9429L34.5648 82.098L42.0833 102.766L35.2999 105.194L27.4454 83.048L27.6554 78.1923H25.0513L22.0271 83.1114L23.2452 105.785H16.2938L15.2017 80.6835L16.8398 78.1923H13.3116L19.0029 59.0229L20.368 48.2347L17.6589 52.2882L6.82222 60.1207L3 55.4972L15.2017 45.2369L20.074 30.9231L23.8752 27.9464L32.2757 27.1441L40.0882 40.1912L46.9136 36.6022L53.1509 22.0139L55.8601 19.0372L62.3705 17.686L71.863 22.5417L82.1746 38.2067L80.1585 44.7091L83.4767 43.9913L86.2698 56.9328ZM70.6449 35.251L71.464 46.6091L73.6691 46.1236L74.5722 39.5578L70.6449 35.251ZM55.062 17.7494C50.6938 17.7494 47.1446 14.2237 47.1446 9.87469C47.1446 5.52566 50.6938 2 55.062 2C59.4303 2 62.9795 5.52566 62.9795 9.87469C62.9585 14.2237 59.4303 17.7494 55.062 17.7494ZM26.1853 26.0674C22.6571 26.0674 19.822 23.2173 19.822 19.7339C19.822 16.2293 22.6781 13.3792 26.1853 13.3792C29.7136 13.3792 32.5487 16.2293 32.5487 19.7339C32.5487 23.2384 29.6926 26.0674 26.1853 26.0674Z" stroke="black" stroke-width="3" stroke-miterlimit="10"/>
</svg>
