<svg width="91" height="76" viewBox="0 0 91 76" fill="none" xmlns="http://www.w3.org/2000/svg">
<g clip-path="url(#clip0)">
<path fill-rule="evenodd" clip-rule="evenodd" d="M65.2036 34.3228V75.1308H4.01546V73.5312H0.869141V9.80664H62.8569H63.6392V11.1107C69.0105 5.58152 72.7826 1.68676 72.7826 1.68676L73.2693 1.18253L89.6094 14.223L65.2036 34.3228ZM62.0747 11.4063C60.5624 11.4063 3.94593 11.4063 2.45099 11.4063C2.45099 12.9364 2.45099 70.4189 2.45099 71.9489C2.59006 71.9489 3.12893 71.9489 4.01546 71.9489C13.3501 71.9489 60.7014 71.9489 62.0747 71.9489C62.0747 71.097 62.0747 53.0837 62.0747 36.9135L23.467 68.7497L3.42444 36.4962L22.4241 33.2795C22.4241 33.2795 26.5786 46.5113 27.2392 48.6499C28.4212 47.4154 48.9853 26.2203 62.0747 12.7277C62.0747 11.9801 62.0747 11.5106 62.0747 11.4063Z" stroke="black" stroke-width="2" stroke-miterlimit="10"/>
</g>
<defs>
<clipPath id="clip0">
<rect width="91" height="76" fill="white"/>
</clipPath>
</defs>
</svg>
