<svg width="121" height="116" viewBox="0 0 121 116" fill="none" xmlns="http://www.w3.org/2000/svg">
<g clip-path="url(#clip0)">
<path fill-rule="evenodd" clip-rule="evenodd" d="M24.8064 66.8678C24.8064 66.8678 23.6048 55.0006 22.8219 52.9312C22.8219 52.9312 20.6372 42.7305 21.2198 41.7049C21.2198 41.7049 19.4356 35.8812 24.4059 36.5039C24.4059 36.5039 31.1785 37.1265 32.1616 49.1952C32.1616 49.1952 32.5622 52.1071 32.9627 52.9312C32.9627 52.9312 34.3646 63.3333 35.7482 63.1319C35.7482 63.1319 41.119 61.6668 42.5027 57.3081C42.5027 57.3081 44.2869 50.2391 44.8877 50.0193C44.8877 50.0193 45.6887 47.7301 45.6887 45.6424C45.6887 45.6424 46.6901 38.3535 47.0724 37.5294C47.0724 37.5294 48.8566 27.75 49.4574 27.1273C49.4574 27.1273 50.2402 25.4608 50.4587 22.9701C50.4587 22.9701 53.044 12.568 56.0298 12.9892C56.0298 12.9892 62.0013 11.7439 59.2158 21.5233L58.0142 24.8564C58.0142 24.8564 56.8126 28.3909 57.0129 30.0575C57.0129 30.0575 57.0129 36.3024 56.4121 38.1704C56.4121 38.1704 55.8113 45.8621 55.4108 47.3272C55.4108 47.3272 54.81 50.2391 56.4121 50.8617C56.4121 50.8617 57.0129 52.7297 58.1963 47.7301C58.1963 47.7301 60.381 37.9506 61.1821 37.7492C61.1821 37.7492 64.5684 26.3032 65.7518 26.1017C65.7518 26.1017 68.7376 17.7873 69.3384 17.5676C69.3384 17.5676 71.1226 12.1651 76.111 14.0331C76.111 14.0331 78.8965 17.5676 75.5102 22.7687C75.5102 22.7687 72.925 30.2589 72.925 31.3028C72.925 31.3028 70.7402 39.8369 70.1394 40.8808C70.1394 40.8808 67.5542 53.7736 66.7531 54.8175C66.7531 54.8175 67.1536 58.352 69.3384 53.5722C69.3384 53.5722 72.1239 47.5287 74.1084 45.4592C74.1084 45.4592 77.4947 38.5916 78.0955 38.1704C78.0955 38.1704 78.8783 35.2585 79.6794 33.592C79.6794 33.592 81.6639 23.8125 85.651 24.8564C85.651 24.8564 90.421 25.0579 87.8357 32.5481C87.8357 32.5481 86.0515 38.3719 85.0502 39.8369C85.0502 39.8369 81.8641 51.4844 80.4805 52.748C80.4805 52.748 74.5089 64.6153 74.7092 65.2379C74.7092 65.2379 76.6936 69.5966 79.2789 65.6592C79.2789 65.6592 81.6639 63.3699 83.266 62.3261C83.266 62.3261 87.8357 58.3703 89.0373 56.7038C89.0373 56.7038 91.6226 54.1948 92.6239 51.9239C92.6239 51.9239 97.1936 44.6351 99.7789 46.9243C99.7789 46.9243 104.549 49.6347 95.5915 59.8171C95.5915 59.8171 90.2207 66.4833 89.2194 67.7286C89.2194 67.7286 81.4636 76.4642 81.0631 77.7278C81.0631 77.7278 72.5062 93.5508 72.5062 94.7961C72.5062 94.7961 67.536 101.609 62.5657 105.162C62.5657 105.162 55.9933 109.612 47.4365 105.162L41.1736 103.751C41.1736 103.751 32.5076 99.7957 31.1239 94.1735C31.1785 94.1185 24.8064 78.5153 24.8064 66.8678Z" stroke="black" stroke-width="3" stroke-miterlimit="10"/>
</g>
<path opacity="0.4" fill-rule="evenodd" clip-rule="evenodd" d="M21.5138 13.6441C-4.02956 34.2789 -7.29755 70.8747 14.2359 95.3718C35.7693 119.869 73.9429 122.991 99.4862 102.356C125.03 81.7211 128.298 45.1253 106.764 20.6282C85.2307 -3.86893 47.0747 -6.99059 21.5138 13.6441ZM25.6827 86.1126C11.0739 69.499 11.6215 45.4957 25.9476 29.5523L83.8705 95.4423C65.0575 106.271 40.2915 102.726 25.6827 86.1126ZM95.0524 86.4301L37.1295 20.54C55.9601 9.7112 80.7262 13.2561 95.3173 29.8697C109.926 46.4834 109.379 70.469 95.0524 86.4301Z" fill="#ED1C24" fill-opacity="0.6"/>
<defs>
<clipPath id="clip0">
<rect width="82" height="96" fill="white" transform="translate(20 12)"/>
</clipPath>
</defs>
</svg>
