<svg width="121" height="116" viewBox="0 0 121 116" fill="none" xmlns="http://www.w3.org/2000/svg">
<g clip-path="url(#clip0)">
<path fill-rule="evenodd" clip-rule="evenodd" d="M84.1297 73.1274C84.1297 86.4199 73.3358 97.1845 60.0001 97.1845C46.6645 97.1845 35.8706 86.4199 35.8706 73.1274C35.8706 59.8348 60.0001 19.6636 60.0001 19.6636C60.0001 19.6636 84.1297 59.8348 84.1297 73.1274Z" stroke="black" stroke-width="3" stroke-miterlimit="10"/>
</g>
<path opacity="0.4" fill-rule="evenodd" clip-rule="evenodd" d="M21.5138 13.6441C-4.02956 34.2789 -7.29755 70.8747 14.2359 95.3718C35.7693 119.869 73.9429 122.991 99.4862 102.356C125.03 81.7211 128.298 45.1253 106.764 20.6282C85.2307 -3.86893 47.0747 -6.99059 21.5138 13.6441ZM25.6827 86.1126C11.0739 69.499 11.6215 45.4957 25.9476 29.5523L83.8705 95.4423C65.0575 106.271 40.2915 102.726 25.6827 86.1126ZM95.0524 86.4301L37.1295 20.54C55.9601 9.7112 80.7262 13.2561 95.3173 29.8697C109.926 46.4834 109.379 70.469 95.0524 86.4301Z" fill="#ED1C24" fill-opacity="0.6"/>
<defs>
<clipPath id="clip0">
<rect width="50" height="80" fill="white" transform="translate(35 18)"/>
</clipPath>
</defs>
</svg>
