<svg width="121" height="116" viewBox="0 0 121 116" fill="none" xmlns="http://www.w3.org/2000/svg">
<g clip-path="url(#clip0)">
<path fill-rule="evenodd" clip-rule="evenodd" d="M73.7533 44.7974L65.7645 42.7959L74.4372 63.1133L82.1925 89.9061L91.9993 108.878L84.4775 112.898L73.5198 93.9259L63.0292 73.8271L51.3211 88.3588L50.0202 113.957L41.9146 114.21L41.8312 83.414L53.0056 66.4435L48.9027 49.4731L41.064 55.0066L24.9528 60.8596L22.0007 54.8888L39.5963 46.1261L45.467 34.0836L49.1196 30.2825L55.7408 28.2642L63.7297 29.3743L81.2919 39.3816L86.7624 57.9667L80.1411 60.4223L73.7533 44.7974ZM48.4858 27.6924C44.2662 27.6924 40.8472 24.3454 40.8472 20.2247C40.8472 16.104 44.2662 12.757 48.4858 12.757C52.7054 12.757 56.1244 16.104 56.1244 20.2247C56.1244 24.3454 52.7054 27.6924 48.4858 27.6924Z" stroke="black" stroke-width="3" stroke-miterlimit="10"/>
</g>
<path opacity="0.4" fill-rule="evenodd" clip-rule="evenodd" d="M21.5138 13.6441C-4.02956 34.2789 -7.29755 70.8747 14.2359 95.3718C35.7693 119.869 73.9429 122.991 99.4862 102.356C125.03 81.7211 128.298 45.1253 106.764 20.6282C85.2307 -3.86893 47.0747 -6.99059 21.5138 13.6441ZM25.6827 86.1126C11.0739 69.499 11.6215 45.4957 25.9476 29.5523L83.8705 95.4423C65.0575 106.271 40.2915 102.726 25.6827 86.1126ZM95.0524 86.4301L37.1295 20.54C55.9601 9.7112 80.7262 13.2561 95.3173 29.8697C109.926 46.4834 109.379 70.469 95.0524 86.4301Z" fill="#ED1C24" fill-opacity="0.6"/>
<defs>
<clipPath id="clip0">
<rect width="72" height="103" fill="white" transform="translate(21 12)"/>
</clipPath>
</defs>
</svg>
