<svg width="101" height="108" viewBox="0 0 101 108" fill="none" xmlns="http://www.w3.org/2000/svg">
<path d="M24.0374 51.1204L6.96821 32.9096C0.343931 25.8354 0.343931 14.3712 6.96821 7.30193C13.5971 0.232692 24.3398 0.232692 30.964 7.30193L48.0286 25.5128" stroke="black" stroke-width="3" stroke-miterlimit="10" stroke-linecap="round" stroke-linejoin="round"/>
<path d="M29.4613 45.337L12.3921 27.1262C8.75928 23.2493 8.75928 16.9672 12.3921 13.0952C16.0249 9.21841 21.9116 9.2233 25.5398 13.0952L42.6044 31.3061" stroke="black" stroke-width="3" stroke-miterlimit="10" stroke-linecap="round" stroke-linejoin="round"/>
<path d="M19.3096 20.4675L36.0352 38.3166" stroke="black" stroke-width="3" stroke-miterlimit="10" stroke-linecap="round" stroke-linejoin="round"/>
<path d="M60.5761 38.8983L94.032 74.6014C100.656 81.6755 100.656 93.1398 94.032 100.209C87.4031 107.283 76.6604 107.283 70.0361 100.209L36.5803 64.5059" stroke="black" stroke-width="3" stroke-miterlimit="10" stroke-linecap="round" stroke-linejoin="round"/>
<path d="M55.1521 44.6869L88.6079 80.39C92.2408 84.2668 92.2408 90.5489 88.6079 94.4209C84.9751 98.2977 79.0884 98.2977 75.4601 94.4209L42.0044 58.7178" stroke="black" stroke-width="3" stroke-miterlimit="10" stroke-linecap="round" stroke-linejoin="round"/>
<path d="M81.6949 87.0434L48.5781 51.7021" stroke="black" stroke-width="3" stroke-miterlimit="10" stroke-linecap="round" stroke-linejoin="round"/>
<path d="M22.3975 52.8707L49.6733 23.7676" stroke="black" stroke-width="3" stroke-miterlimit="10" stroke-linecap="round" stroke-linejoin="round"/>
<path d="M25.5305 56.2194L52.8064 27.1113" stroke="black" stroke-width="3" stroke-miterlimit="10" stroke-linecap="round" stroke-linejoin="round"/>
<path d="M28.6689 59.5631L55.9448 30.4551" stroke="#1A1910" stroke-width="3" stroke-miterlimit="10" stroke-linecap="round" stroke-linejoin="round"/>
<path d="M31.8071 62.9122L59.0784 33.8042" stroke="black" stroke-width="3" stroke-miterlimit="10" stroke-linecap="round" stroke-linejoin="round"/>
<path d="M34.9407 66.2562L62.2166 37.1482" stroke="black" stroke-width="3" stroke-miterlimit="10" stroke-linecap="round" stroke-linejoin="round"/>
</svg>
