<?xml version="1.0" encoding="utf-8"?>
<!-- Generator: Adobe Illustrator 23.0.6, SVG Export Plug-In . SVG Version: 6.00 Build 0)  -->
<svg version="1.1" id="Layer_1" xmlns="http://www.w3.org/2000/svg" xmlns:xlink="http://www.w3.org/1999/xlink" x="0px" y="0px"
	 viewBox="0 0 339 301.8" style="enable-background:new 0 0 339 301.8;" xml:space="preserve">
<style type="text/css">
	.st0{fill:#009245;}
	.st1{fill:none;stroke:#000000;stroke-width:4;stroke-linecap:round;stroke-linejoin:round;stroke-miterlimit:10;}
	.st2{fill:none;}
	.st3{fill:#10943D;}
</style>
<path class="st0" d="M213.9,110l-25.8,46.1l-7-7.5l26-42.2L213.9,110z"/>
<path class="st0" d="M176.8,132.6l15.7,15.6l-4.5,8L171,137.7L176.8,132.6z"/>
<path class="st1" d="M141.4,119.4L78,204h126.9L141.4,119.4z"/>
<path class="st1" d="M121.2,146.2l13.4,13.4l4.9-4.9l11,11l14.7-14.7"/>
<path class="st1" d="M182.8,174.5l28.1-37.4L261,204h-56.1"/>
<path class="st1" d="M226.8,158.3l-10.6,10.6l-3.9-3.9l-8.7,8.7l-11.6-11.6"/>
<path class="st2" d="M0.5,0h338v301.8H0.5V0z"/>
<path class="st3" d="M139.2,65.1c0,2.8-0.5,5.2-1.4,7.3c-0.9,2.1-2.3,3.7-4,4.7c-1.7,1.1-3.7,1.6-6,1.6c-2.2,0-4.2-0.5-6-1.6
	c-1.7-1.1-3.1-2.7-4-4.7c-1-2-1.4-4.4-1.5-7.1v-2.1c0-2.7,0.5-5.1,1.4-7.2c1-2.1,2.3-3.7,4-4.8c1.7-1.1,3.7-1.7,6-1.7
	c2.3,0,4.3,0.6,6,1.7c1.7,1.1,3.1,2.7,4,4.8c0.9,2.1,1.4,4.5,1.4,7.3V65.1z M135.4,63.2c0-3.4-0.7-6-2-7.8c-1.4-1.8-3.2-2.7-5.7-2.7
	c-2.4,0-4.2,0.9-5.6,2.7c-1.4,1.8-2.1,4.3-2.1,7.5v2.1c0,3.3,0.7,5.8,2.1,7.7c1.4,1.9,3.3,2.8,5.7,2.8c2.4,0,4.3-0.9,5.6-2.6
	c1.3-1.8,2-4.3,2.1-7.6V63.2z M148.6,67.3v11.1h-3.8V49.9h10.5c3.1,0,5.5,0.8,7.3,2.4c1.8,1.6,2.7,3.7,2.7,6.3
	c0,2.8-0.9,4.9-2.6,6.4c-1.7,1.5-4.2,2.2-7.4,2.2H148.6z M148.6,64.2h6.7c2,0,3.5-0.5,4.6-1.4c1.1-1,1.6-2.3,1.6-4.1
	c0-1.7-0.5-3-1.6-4.1c-1.1-1-2.5-1.5-4.4-1.6h-7V64.2z M186.1,65.2h-12.3v10.1h14.3v3.1H170V49.9h17.9V53h-14.1v9.1h12.3V65.2z
	 M214.6,78.4h-3.8l-14.3-21.9v21.9h-3.8V49.9h3.8l14.4,22v-22h3.7V78.4z"/>
<path d="M101.1,248.1c0,1.1-0.2,2.1-0.6,2.9c-0.4,0.8-0.9,1.5-1.6,1.9s-1.5,0.7-2.4,0.7c-0.9,0-1.7-0.2-2.4-0.7
	c-0.7-0.4-1.2-1.1-1.6-1.9c-0.4-0.8-0.6-1.8-0.6-2.8v-0.8c0-1.1,0.2-2.1,0.6-2.9c0.4-0.8,0.9-1.5,1.6-1.9c0.7-0.4,1.5-0.7,2.4-0.7
	c0.9,0,1.7,0.2,2.4,0.7c0.7,0.4,1.2,1.1,1.6,1.9c0.4,0.8,0.6,1.8,0.6,2.9V248.1z M99.6,247.3c0-1.3-0.3-2.4-0.8-3.1
	c-0.5-0.7-1.3-1.1-2.3-1.1c-0.9,0-1.7,0.4-2.2,1.1c-0.5,0.7-0.8,1.7-0.8,3v0.8c0,1.3,0.3,2.3,0.8,3.1c0.6,0.7,1.3,1.1,2.3,1.1
	c1,0,1.7-0.4,2.2-1.1c0.5-0.7,0.8-1.7,0.8-3V247.3z M104.8,248.9v4.5h-1.5V242h4.2c1.2,0,2.2,0.3,2.9,1c0.7,0.6,1.1,1.5,1.1,2.5
	c0,1.1-0.3,2-1,2.6c-0.7,0.6-1.7,0.9-3,0.9H104.8z M104.8,247.7h2.7c0.8,0,1.4-0.2,1.8-0.6c0.4-0.4,0.6-0.9,0.6-1.6
	c0-0.7-0.2-1.2-0.6-1.6c-0.4-0.4-1-0.6-1.8-0.6h-2.8V247.7z M119.8,248.1h-4.9v4h5.7v1.2h-7.2V242h7.1v1.2h-5.6v3.7h4.9V248.1z
	 M126.7,248.8H124v4.6h-1.5V242h3.8c1.3,0,2.3,0.3,3,0.9c0.7,0.6,1,1.4,1,2.5c0,0.7-0.2,1.3-0.6,1.9c-0.4,0.5-0.9,0.9-1.6,1.2
	l2.7,4.8v0.1h-1.6L126.7,248.8z M124,247.6h2.3c0.7,0,1.3-0.2,1.8-0.6c0.4-0.4,0.7-0.9,0.7-1.5c0-0.7-0.2-1.2-0.6-1.6
	c-0.4-0.4-1-0.6-1.8-0.6H124V247.6z M138.6,250.4h-4.8l-1.1,3h-1.5l4.3-11.4h1.3l4.4,11.4h-1.5L138.6,250.4z M134.3,249.2h3.9
	l-1.9-5.3L134.3,249.2z M149.6,243.2H146v10.1h-1.5v-10.1h-3.6V242h8.8V243.2z M152.9,253.4h-1.5V242h1.5V253.4z M164.4,253.4h-1.5
	l-5.7-8.8v8.8h-1.5V242h1.5l5.7,8.8V242h1.5V253.4z M175.5,251.9c-0.4,0.6-0.9,1-1.6,1.2c-0.7,0.3-1.5,0.4-2.4,0.4
	c-0.9,0-1.8-0.2-2.5-0.6c-0.7-0.4-1.3-1.1-1.7-1.9c-0.4-0.8-0.6-1.7-0.6-2.8v-1c0-1.7,0.4-3,1.2-4c0.8-0.9,1.9-1.4,3.4-1.4
	c1.2,0,2.1,0.3,2.9,0.9c0.7,0.6,1.2,1.5,1.3,2.6H174c-0.3-1.5-1.2-2.3-2.7-2.3c-1,0-1.8,0.4-2.3,1.1c-0.5,0.7-0.8,1.7-0.8,3.1v0.9
	c0,1.3,0.3,2.3,0.9,3c0.6,0.8,1.4,1.1,2.4,1.1c0.6,0,1.1-0.1,1.5-0.2s0.8-0.3,1-0.6v-2.6h-2.6v-1.2h4.1V251.9z M188.3,250.4h-4.8
	l-1.1,3h-1.5l4.3-11.4h1.3l4.4,11.4h-1.5L188.3,250.4z M183.9,249.2h3.9l-1.9-5.3L183.9,249.2z M195.8,248.3
	c-1.3-0.4-2.2-0.8-2.8-1.4c-0.6-0.5-0.9-1.2-0.9-2c0-0.9,0.4-1.6,1.1-2.2c0.7-0.6,1.7-0.9,2.8-0.9c0.8,0,1.5,0.2,2.1,0.5
	c0.6,0.3,1.1,0.7,1.4,1.2c0.3,0.5,0.5,1.1,0.5,1.7h-1.5c0-0.7-0.2-1.2-0.7-1.6c-0.4-0.4-1.1-0.6-1.9-0.6c-0.7,0-1.3,0.2-1.7,0.5
	c-0.4,0.3-0.6,0.8-0.6,1.4c0,0.5,0.2,0.9,0.6,1.2c0.4,0.3,1.1,0.6,2,0.9c0.9,0.3,1.7,0.6,2.2,0.9c0.5,0.3,0.9,0.7,1.2,1.1
	c0.3,0.4,0.4,0.9,0.4,1.5c0,0.9-0.4,1.7-1.1,2.2c-0.7,0.6-1.7,0.8-2.9,0.8c-0.8,0-1.5-0.1-2.2-0.4c-0.7-0.3-1.2-0.7-1.6-1.2
	c-0.4-0.5-0.5-1.1-0.5-1.8h1.5c0,0.7,0.3,1.2,0.8,1.6c0.5,0.4,1.2,0.6,2,0.6c0.8,0,1.4-0.2,1.8-0.5c0.4-0.3,0.6-0.8,0.6-1.3
	s-0.2-1-0.6-1.3C197.5,248.9,196.8,248.6,195.8,248.3z M213.9,242v7.7c0,1.1-0.3,2-1,2.6c-0.7,0.7-1.6,1.1-2.7,1.1l-0.4,0
	c-1.2,0-2.2-0.3-3-1c-0.7-0.7-1.1-1.6-1.1-2.8V242h1.5v7.7c0,0.8,0.2,1.5,0.7,1.9c0.5,0.5,1.1,0.7,1.9,0.7c0.8,0,1.5-0.2,1.9-0.7
	c0.5-0.5,0.7-1.1,0.7-1.9V242H213.9z M219.6,248.3c-1.3-0.4-2.2-0.8-2.8-1.4c-0.6-0.5-0.9-1.2-0.9-2c0-0.9,0.4-1.6,1.1-2.2
	c0.7-0.6,1.7-0.9,2.8-0.9c0.8,0,1.5,0.2,2.1,0.5c0.6,0.3,1.1,0.7,1.4,1.2c0.3,0.5,0.5,1.1,0.5,1.7h-1.5c0-0.7-0.2-1.2-0.7-1.6
	c-0.4-0.4-1.1-0.6-1.9-0.6c-0.7,0-1.3,0.2-1.7,0.5c-0.4,0.3-0.6,0.8-0.6,1.4c0,0.5,0.2,0.9,0.6,1.2c0.4,0.3,1.1,0.6,2,0.9
	c0.9,0.3,1.7,0.6,2.2,0.9c0.5,0.3,0.9,0.7,1.2,1.1c0.3,0.4,0.4,0.9,0.4,1.5c0,0.9-0.4,1.7-1.1,2.2c-0.7,0.6-1.7,0.8-2.9,0.8
	c-0.8,0-1.5-0.1-2.2-0.4c-0.7-0.3-1.2-0.7-1.6-1.2c-0.4-0.5-0.5-1.1-0.5-1.8h1.5c0,0.7,0.3,1.2,0.8,1.6c0.5,0.4,1.2,0.6,2,0.6
	c0.8,0,1.4-0.2,1.8-0.5c0.4-0.3,0.6-0.8,0.6-1.3s-0.2-1-0.6-1.3C221.3,248.9,220.6,248.6,219.6,248.3z M233.8,242v7.7
	c0,1.1-0.3,2-1,2.6c-0.7,0.7-1.6,1.1-2.7,1.1l-0.4,0c-1.2,0-2.2-0.3-3-1c-0.7-0.7-1.1-1.6-1.1-2.8V242h1.5v7.7
	c0,0.8,0.2,1.5,0.7,1.9c0.5,0.5,1.1,0.7,1.9,0.7c0.8,0,1.5-0.2,1.9-0.7c0.5-0.5,0.7-1.1,0.7-1.9V242H233.8z M242.2,250.4h-4.8
	l-1.1,3h-1.5l4.3-11.4h1.3l4.4,11.4h-1.5L242.2,250.4z M237.9,249.2h3.9l-1.9-5.3L237.9,249.2z M247.9,252.2h5.4v1.2h-6.9V242h1.5
	V252.2z"/>
</svg>
