<svg width="1314" height="594" viewBox="0 0 1314 594" fill="none" xmlns="http://www.w3.org/2000/svg">
<path d="M918.598 423.642L754.402 527.358" stroke="black" stroke-width="0.75" stroke-miterlimit="10"/>
<line x1="919" y1="422.625" x2="992" y2="422.625" stroke="black" stroke-width="0.75"/>
<path d="M951.598 132.642L787.402 236.358" stroke="black" stroke-width="0.75" stroke-miterlimit="10"/>
<line x1="952" y1="131.625" x2="1025" y2="131.625" stroke="black" stroke-width="0.75"/>
<line x1="952" y1="131.625" x2="1025" y2="131.625" stroke="black" stroke-width="0.75"/>
<path d="M543.598 72.6422L379.402 176.358" stroke="black" stroke-width="0.75" stroke-miterlimit="10"/>
<line x1="306" y1="175.625" x2="379" y2="175.625" stroke="black" stroke-width="0.75"/>
<path d="M533.598 354.642L369.402 458.358" stroke="black" stroke-width="0.75" stroke-miterlimit="10"/>
<line x1="296" y1="457.625" x2="369" y2="457.625" stroke="black" stroke-width="0.75"/>
<path d="M1313.5 132C1313.5 158.872 1299.16 183.236 1275.91 200.898C1252.66 218.561 1220.52 229.5 1185 229.5C1149.48 229.5 1117.34 218.561 1094.09 200.898C1070.84 183.236 1056.5 158.872 1056.5 132C1056.5 105.128 1070.84 80.764 1094.09 63.1017C1117.34 45.4391 1149.48 34.5 1185 34.5C1220.52 34.5 1252.66 45.4391 1275.91 63.1017C1299.16 80.764 1313.5 105.128 1313.5 132Z" stroke="black"/>
<path d="M1286.5 436C1286.5 462.872 1272.16 487.236 1248.91 504.898C1225.66 522.561 1193.52 533.5 1158 533.5C1122.48 533.5 1090.34 522.561 1067.09 504.898C1043.84 487.236 1029.5 462.872 1029.5 436C1029.5 409.128 1043.84 384.764 1067.09 367.102C1090.34 349.439 1122.48 338.5 1158 338.5C1193.52 338.5 1225.66 349.439 1248.91 367.102C1272.16 384.764 1286.5 409.128 1286.5 436Z" stroke="black"/>
<path d="M257.5 458C257.5 484.872 243.164 509.236 219.914 526.898C196.665 544.561 164.523 555.5 129 555.5C93.4769 555.5 61.3355 544.561 38.0857 526.898C14.8363 509.236 0.5 484.872 0.5 458C0.5 431.128 14.8363 406.764 38.0857 389.102C61.3355 371.439 93.4769 360.5 129 360.5C164.523 360.5 196.665 371.439 219.914 389.102C243.164 406.764 257.5 431.128 257.5 458Z" stroke="black"/>
<path d="M284.5 154C284.5 180.872 270.164 205.236 246.914 222.898C223.665 240.561 191.523 251.5 156 251.5C120.477 251.5 88.3355 240.561 65.0857 222.898C41.8363 205.236 27.5 180.872 27.5 154C27.5 127.128 41.8363 102.764 65.0857 85.1017C88.3355 67.4391 120.477 56.5 156 56.5C191.523 56.5 223.665 67.4391 246.914 85.1017C270.164 102.764 284.5 127.128 284.5 154Z" stroke="black"/>
<path d="M1109.82 499.547V504H1108.32V492.625H1112.52C1113.76 492.625 1114.73 492.943 1115.44 493.578C1116.15 494.214 1116.5 495.055 1116.5 496.102C1116.5 497.206 1116.15 498.057 1115.46 498.656C1114.77 499.25 1113.79 499.547 1112.5 499.547H1109.82ZM1109.82 498.32H1112.52C1113.32 498.32 1113.93 498.133 1114.36 497.758C1114.79 497.378 1115 496.831 1115 496.117C1115 495.44 1114.79 494.898 1114.36 494.492C1113.93 494.086 1113.35 493.875 1112.6 493.859H1109.82V498.32ZM1122.59 499.398H1119.91V504H1118.41V492.625H1122.17C1123.45 492.625 1124.44 492.917 1125.12 493.5C1125.82 494.083 1126.16 494.932 1126.16 496.047C1126.16 496.755 1125.97 497.372 1125.59 497.898C1125.21 498.424 1124.67 498.818 1123.99 499.078L1126.66 503.906V504H1125.05L1122.59 499.398ZM1119.91 498.172H1122.22C1122.96 498.172 1123.55 497.979 1123.99 497.594C1124.43 497.208 1124.66 496.693 1124.66 496.047C1124.66 495.344 1124.45 494.805 1124.02 494.43C1123.61 494.055 1123 493.865 1122.21 493.859H1119.91V498.172ZM1137.02 498.68C1137.02 499.794 1136.84 500.768 1136.46 501.602C1136.09 502.43 1135.55 503.062 1134.87 503.5C1134.18 503.938 1133.38 504.156 1132.46 504.156C1131.57 504.156 1130.77 503.938 1130.08 503.5C1129.39 503.057 1128.85 502.43 1128.46 501.617C1128.08 500.799 1127.89 499.854 1127.88 498.781V497.961C1127.88 496.867 1128.07 495.901 1128.45 495.062C1128.83 494.224 1129.36 493.583 1130.05 493.141C1130.75 492.693 1131.55 492.469 1132.45 492.469C1133.36 492.469 1134.16 492.69 1134.85 493.133C1135.55 493.57 1136.09 494.208 1136.46 495.047C1136.84 495.88 1137.02 496.852 1137.02 497.961V498.68ZM1135.53 497.945C1135.53 496.596 1135.26 495.562 1134.72 494.844C1134.18 494.12 1133.42 493.758 1132.45 493.758C1131.5 493.758 1130.75 494.12 1130.2 494.844C1129.66 495.562 1129.38 496.562 1129.37 497.844V498.68C1129.37 499.987 1129.64 501.016 1130.19 501.766C1130.74 502.51 1131.5 502.883 1132.46 502.883C1133.43 502.883 1134.18 502.531 1134.71 501.828C1135.24 501.12 1135.52 500.107 1135.53 498.789V497.945ZM1146.91 493.859H1143.26V504H1141.77V493.859H1138.12V492.625H1146.91V493.859ZM1155.03 498.742H1150.1V502.773H1155.83V504H1148.6V492.625H1155.75V493.859H1150.1V497.516H1155.03V498.742ZM1166.06 500.391C1165.92 501.594 1165.48 502.523 1164.73 503.18C1163.98 503.831 1162.99 504.156 1161.75 504.156C1160.41 504.156 1159.33 503.674 1158.52 502.711C1157.71 501.747 1157.3 500.458 1157.3 498.844V497.75C1157.3 496.693 1157.49 495.763 1157.87 494.961C1158.25 494.159 1158.78 493.544 1159.48 493.117C1160.17 492.685 1160.97 492.469 1161.88 492.469C1163.09 492.469 1164.06 492.807 1164.79 493.484C1165.52 494.156 1165.94 495.089 1166.06 496.281H1164.55C1164.42 495.375 1164.14 494.719 1163.7 494.312C1163.27 493.906 1162.66 493.703 1161.88 493.703C1160.92 493.703 1160.17 494.057 1159.62 494.766C1159.08 495.474 1158.81 496.482 1158.81 497.789V498.891C1158.81 500.125 1159.07 501.107 1159.59 501.836C1160.1 502.565 1160.82 502.93 1161.75 502.93C1162.58 502.93 1163.22 502.742 1163.66 502.367C1164.11 501.987 1164.41 501.328 1164.55 500.391H1166.06ZM1175.74 493.859H1172.09V504H1170.59V493.859H1166.95V492.625H1175.74V493.859ZM1187.36 498.977H1182.59V504H1181.09V492.625H1188.13V493.859H1182.59V497.75H1187.36V498.977ZM1196.36 498.742H1191.43V502.773H1197.16V504H1189.93V492.625H1197.08V493.859H1191.43V497.516H1196.36V498.742ZM1205.45 498.742H1200.52V502.773H1206.25V504H1199.02V492.625H1206.17V493.859H1200.52V497.516H1205.45V498.742ZM1216.13 493.859H1212.48V504H1210.98V493.859H1207.34V492.625H1216.13V493.859Z" fill="black"/>
<path d="M116.852 208.711L115.461 210.156V214H113.961V202.625H115.461V208.25L120.516 202.625H122.328L117.852 207.648L122.68 214H120.883L116.852 208.711ZM130.422 208.742H125.492V212.773H131.219V214H123.992V202.625H131.141V203.859H125.492V207.516H130.422V208.742ZM139.516 208.742H134.586V212.773H140.312V214H133.086V202.625H140.234V203.859H134.586V207.516H139.516V208.742ZM143.68 209.547V214H142.18V202.625H146.375C147.62 202.625 148.594 202.943 149.297 203.578C150.005 204.214 150.359 205.055 150.359 206.102C150.359 207.206 150.013 208.057 149.32 208.656C148.633 209.25 147.646 209.547 146.359 209.547H143.68ZM143.68 208.32H146.375C147.177 208.32 147.792 208.133 148.219 207.758C148.646 207.378 148.859 206.831 148.859 206.117C148.859 205.44 148.646 204.898 148.219 204.492C147.792 204.086 147.206 203.875 146.461 203.859H143.68V208.32ZM164.984 214H163.477V208.742H157.742V214H156.242V202.625H157.742V207.516H163.477V202.625H164.984V214ZM174.078 208.742H169.148V212.773H174.875V214H167.648V202.625H174.797V203.859H169.148V207.516H174.078V208.742ZM183.023 211.031H178.258L177.188 214H175.641L179.984 202.625H181.297L185.648 214H184.109L183.023 211.031ZM178.711 209.797H182.578L180.641 204.477L178.711 209.797ZM187.18 214V202.625H190.391C191.38 202.625 192.255 202.844 193.016 203.281C193.776 203.719 194.362 204.341 194.773 205.148C195.19 205.956 195.401 206.883 195.406 207.93V208.656C195.406 209.729 195.198 210.669 194.781 211.477C194.37 212.284 193.779 212.904 193.008 213.336C192.242 213.768 191.349 213.99 190.328 214H187.18ZM188.68 203.859V212.773H190.258C191.414 212.773 192.312 212.414 192.953 211.695C193.599 210.977 193.922 209.953 193.922 208.625V207.961C193.922 206.669 193.617 205.667 193.008 204.953C192.404 204.234 191.544 203.87 190.43 203.859H188.68ZM134.211 229.414L134.43 230.914L134.75 229.562L137 221.625H138.266L140.461 229.562L140.773 230.938L141.016 229.406L142.781 221.625H144.289L141.531 233H140.164L137.82 224.711L137.641 223.844L137.461 224.711L135.031 233H133.664L130.914 221.625H132.414L134.211 229.414ZM151.898 230.031H147.133L146.062 233H144.516L148.859 221.625H150.172L154.523 233H152.984L151.898 230.031ZM147.586 228.797H151.453L149.516 223.477L147.586 228.797ZM160.227 228.398H157.555V233H156.047V221.625H159.812C161.094 221.625 162.078 221.917 162.766 222.5C163.458 223.083 163.805 223.932 163.805 225.047C163.805 225.755 163.612 226.372 163.227 226.898C162.846 227.424 162.315 227.818 161.633 228.078L164.305 232.906V233H162.695L160.227 228.398ZM157.555 227.172H159.859C160.604 227.172 161.195 226.979 161.633 226.594C162.076 226.208 162.297 225.693 162.297 225.047C162.297 224.344 162.086 223.805 161.664 223.43C161.247 223.055 160.643 222.865 159.852 222.859H157.555V227.172ZM167.852 221.625L171.57 230.906L175.289 221.625H177.234V233H175.734V228.57L175.875 223.789L172.141 233H170.992L167.266 223.812L167.414 228.57V233H165.914V221.625H167.852Z" fill="black"/>
<path d="M1145.59 195.773H1150.98V197H1144.08V185.625H1145.59V195.773ZM1159.12 194.031H1154.36L1153.29 197H1151.74L1156.09 185.625H1157.4L1161.75 197H1160.21L1159.12 194.031ZM1154.81 192.797H1158.68L1156.74 187.477L1154.81 192.797ZM1166.02 191.336L1168.98 185.625H1170.69L1166.77 192.758V197H1165.27V192.758L1161.34 185.625H1163.06L1166.02 191.336ZM1178.59 191.742H1173.66V195.773H1179.38V197H1172.16V185.625H1179.3V186.859H1173.66V190.516H1178.59V191.742ZM1185.42 192.398H1182.75V197H1181.24V185.625H1185.01C1186.29 185.625 1187.27 185.917 1187.96 186.5C1188.65 187.083 1189 187.932 1189 189.047C1189 189.755 1188.81 190.372 1188.42 190.898C1188.04 191.424 1187.51 191.818 1186.83 192.078L1189.5 196.906V197H1187.89L1185.42 192.398ZM1182.75 191.172H1185.05C1185.8 191.172 1186.39 190.979 1186.83 190.594C1187.27 190.208 1187.49 189.693 1187.49 189.047C1187.49 188.344 1187.28 187.805 1186.86 187.43C1186.44 187.055 1185.84 186.865 1185.05 186.859H1182.75V191.172ZM1194.46 191.93C1193.17 191.56 1192.24 191.107 1191.65 190.57C1191.07 190.029 1190.77 189.362 1190.77 188.57C1190.77 187.674 1191.13 186.935 1191.84 186.352C1192.56 185.763 1193.49 185.469 1194.64 185.469C1195.42 185.469 1196.12 185.62 1196.73 185.922C1197.34 186.224 1197.82 186.641 1198.15 187.172C1198.49 187.703 1198.66 188.284 1198.66 188.914H1197.15C1197.15 188.227 1196.93 187.688 1196.49 187.297C1196.05 186.901 1195.44 186.703 1194.64 186.703C1193.9 186.703 1193.32 186.867 1192.91 187.195C1192.49 187.518 1192.29 187.969 1192.29 188.547C1192.29 189.01 1192.48 189.404 1192.88 189.727C1193.27 190.044 1193.94 190.336 1194.88 190.602C1195.83 190.867 1196.57 191.161 1197.1 191.484C1197.64 191.802 1198.03 192.174 1198.29 192.602C1198.55 193.029 1198.68 193.531 1198.68 194.109C1198.68 195.031 1198.32 195.771 1197.6 196.328C1196.88 196.88 1195.92 197.156 1194.72 197.156C1193.94 197.156 1193.21 197.008 1192.53 196.711C1191.85 196.409 1191.33 195.997 1190.96 195.477C1190.6 194.956 1190.41 194.365 1190.41 193.703H1191.92C1191.92 194.391 1192.17 194.935 1192.68 195.336C1193.19 195.732 1193.87 195.93 1194.72 195.93C1195.51 195.93 1196.12 195.768 1196.54 195.445C1196.96 195.122 1197.17 194.682 1197.17 194.125C1197.17 193.568 1196.98 193.138 1196.59 192.836C1196.2 192.529 1195.49 192.227 1194.46 191.93ZM1208.29 189.984L1211.02 185.625H1212.78L1209.19 191.266L1212.87 197H1211.09L1208.29 192.562L1205.48 197H1203.7L1207.39 191.266L1203.79 185.625H1205.55L1208.29 189.984ZM1220.3 190.609H1221.39C1222.07 190.599 1222.61 190.419 1223 190.07C1223.39 189.721 1223.59 189.25 1223.59 188.656C1223.59 187.323 1222.92 186.656 1221.59 186.656C1220.97 186.656 1220.47 186.836 1220.09 187.195C1219.72 187.549 1219.54 188.021 1219.54 188.609H1218.09C1218.09 187.708 1218.42 186.961 1219.08 186.367C1219.74 185.768 1220.58 185.469 1221.59 185.469C1222.67 185.469 1223.51 185.753 1224.12 186.32C1224.73 186.888 1225.03 187.677 1225.03 188.688C1225.03 189.182 1224.87 189.661 1224.55 190.125C1224.23 190.589 1223.79 190.935 1223.24 191.164C1223.87 191.362 1224.35 191.69 1224.69 192.148C1225.03 192.607 1225.2 193.167 1225.2 193.828C1225.2 194.849 1224.87 195.659 1224.2 196.258C1223.54 196.857 1222.67 197.156 1221.6 197.156C1220.53 197.156 1219.66 196.867 1218.99 196.289C1218.33 195.711 1217.99 194.948 1217.99 194H1219.45C1219.45 194.599 1219.64 195.078 1220.03 195.438C1220.42 195.797 1220.95 195.977 1221.6 195.977C1222.3 195.977 1222.83 195.794 1223.2 195.43C1223.57 195.065 1223.76 194.542 1223.76 193.859C1223.76 193.198 1223.55 192.69 1223.15 192.336C1222.74 191.982 1222.16 191.799 1221.39 191.789H1220.3V190.609Z" fill="black"/>
<path d="M72.2422 516.547V521H70.7422V509.625H74.9375C76.1823 509.625 77.1562 509.943 77.8594 510.578C78.5677 511.214 78.9219 512.055 78.9219 513.102C78.9219 514.206 78.5755 515.057 77.8828 515.656C77.1953 516.25 76.2083 516.547 74.9219 516.547H72.2422ZM72.2422 515.32H74.9375C75.7396 515.32 76.3542 515.133 76.7812 514.758C77.2083 514.378 77.4219 513.831 77.4219 513.117C77.4219 512.44 77.2083 511.898 76.7812 511.492C76.3542 511.086 75.7682 510.875 75.0234 510.859H72.2422V515.32ZM85.0078 516.398H82.3359V521H80.8281V509.625H84.5938C85.875 509.625 86.8594 509.917 87.5469 510.5C88.2396 511.083 88.5859 511.932 88.5859 513.047C88.5859 513.755 88.3932 514.372 88.0078 514.898C87.6276 515.424 87.0964 515.818 86.4141 516.078L89.0859 520.906V521H87.4766L85.0078 516.398ZM82.3359 515.172H84.6406C85.3854 515.172 85.9766 514.979 86.4141 514.594C86.8568 514.208 87.0781 513.693 87.0781 513.047C87.0781 512.344 86.8672 511.805 86.4453 511.43C86.0286 511.055 85.4245 510.865 84.6328 510.859H82.3359V515.172ZM99.4453 515.68C99.4453 516.794 99.2578 517.768 98.8828 518.602C98.5078 519.43 97.9766 520.062 97.2891 520.5C96.6016 520.938 95.7995 521.156 94.8828 521.156C93.987 521.156 93.1927 520.938 92.5 520.5C91.8073 520.057 91.2682 519.43 90.8828 518.617C90.5026 517.799 90.3073 516.854 90.2969 515.781V514.961C90.2969 513.867 90.487 512.901 90.8672 512.062C91.2474 511.224 91.7839 510.583 92.4766 510.141C93.1745 509.693 93.9714 509.469 94.8672 509.469C95.7786 509.469 96.5807 509.69 97.2734 510.133C97.9714 510.57 98.5078 511.208 98.8828 512.047C99.2578 512.88 99.4453 513.852 99.4453 514.961V515.68ZM97.9531 514.945C97.9531 513.596 97.6823 512.562 97.1406 511.844C96.599 511.12 95.8411 510.758 94.8672 510.758C93.9193 510.758 93.1719 511.12 92.625 511.844C92.0833 512.562 91.8047 513.562 91.7891 514.844V515.68C91.7891 516.987 92.0625 518.016 92.6094 518.766C93.1615 519.51 93.9193 519.883 94.8828 519.883C95.8516 519.883 96.6016 519.531 97.1328 518.828C97.6641 518.12 97.9375 517.107 97.9531 515.789V514.945ZM109.336 510.859H105.68V521H104.188V510.859H100.539V509.625H109.336V510.859ZM117.453 515.742H112.523V519.773H118.25V521H111.023V509.625H118.172V510.859H112.523V514.516H117.453V515.742ZM128.484 517.391C128.344 518.594 127.898 519.523 127.148 520.18C126.404 520.831 125.411 521.156 124.172 521.156C122.828 521.156 121.75 520.674 120.938 519.711C120.13 518.747 119.727 517.458 119.727 515.844V514.75C119.727 513.693 119.914 512.763 120.289 511.961C120.669 511.159 121.206 510.544 121.898 510.117C122.591 509.685 123.393 509.469 124.305 509.469C125.513 509.469 126.482 509.807 127.211 510.484C127.94 511.156 128.365 512.089 128.484 513.281H126.977C126.846 512.375 126.562 511.719 126.125 511.312C125.693 510.906 125.086 510.703 124.305 510.703C123.346 510.703 122.594 511.057 122.047 511.766C121.505 512.474 121.234 513.482 121.234 514.789V515.891C121.234 517.125 121.492 518.107 122.008 518.836C122.523 519.565 123.245 519.93 124.172 519.93C125.005 519.93 125.643 519.742 126.086 519.367C126.534 518.987 126.831 518.328 126.977 517.391H128.484ZM138.164 510.859H134.508V521H133.016V510.859H129.367V509.625H138.164V510.859ZM152.25 521H150.742V515.742H145.008V521H143.508V509.625H145.008V514.516H150.742V509.625H152.25V521ZM161.336 518.031H156.57L155.5 521H153.953L158.297 509.625H159.609L163.961 521H162.422L161.336 518.031ZM157.023 516.797H160.891L158.953 511.477L157.023 516.797ZM174.234 521H172.727L167 512.234V521H165.492V509.625H167L172.742 518.43V509.625H174.234V521ZM176.898 521V509.625H180.109C181.099 509.625 181.974 509.844 182.734 510.281C183.495 510.719 184.081 511.341 184.492 512.148C184.909 512.956 185.12 513.883 185.125 514.93V515.656C185.125 516.729 184.917 517.669 184.5 518.477C184.089 519.284 183.497 519.904 182.727 520.336C181.961 520.768 181.068 520.99 180.047 521H176.898ZM178.398 510.859V519.773H179.977C181.133 519.773 182.031 519.414 182.672 518.695C183.318 517.977 183.641 516.953 183.641 515.625V514.961C183.641 513.669 183.336 512.667 182.727 511.953C182.122 511.234 181.263 510.87 180.148 510.859H178.398ZM190.75 515.93C189.464 515.56 188.526 515.107 187.938 514.57C187.354 514.029 187.062 513.362 187.062 512.57C187.062 511.674 187.419 510.935 188.133 510.352C188.852 509.763 189.784 509.469 190.93 509.469C191.711 509.469 192.406 509.62 193.016 509.922C193.63 510.224 194.104 510.641 194.438 511.172C194.776 511.703 194.945 512.284 194.945 512.914H193.438C193.438 512.227 193.219 511.688 192.781 511.297C192.344 510.901 191.727 510.703 190.93 510.703C190.19 510.703 189.612 510.867 189.195 511.195C188.784 511.518 188.578 511.969 188.578 512.547C188.578 513.01 188.773 513.404 189.164 513.727C189.56 514.044 190.229 514.336 191.172 514.602C192.12 514.867 192.859 515.161 193.391 515.484C193.927 515.802 194.323 516.174 194.578 516.602C194.839 517.029 194.969 517.531 194.969 518.109C194.969 519.031 194.609 519.771 193.891 520.328C193.172 520.88 192.211 521.156 191.008 521.156C190.227 521.156 189.497 521.008 188.82 520.711C188.143 520.409 187.62 519.997 187.25 519.477C186.885 518.956 186.703 518.365 186.703 517.703H188.211C188.211 518.391 188.464 518.935 188.969 519.336C189.479 519.732 190.159 519.93 191.008 519.93C191.799 519.93 192.406 519.768 192.828 519.445C193.25 519.122 193.461 518.682 193.461 518.125C193.461 517.568 193.266 517.138 192.875 516.836C192.484 516.529 191.776 516.227 190.75 515.93Z" fill="black"/>
<g clip-path="url(#clip0)">
<path d="M149.341 106.188C134.691 126.761 119.64 148.628 118 174.668C117.818 177.602 122.373 177.584 122.555 174.668C124.141 149.558 139.155 128.31 153.259 108.502C154.972 106.097 151.017 103.819 149.341 106.188Z" fill="#414042"/>
<path d="M153.04 108.193C174.086 125.03 187.297 150.742 188.445 177.693C188.572 180.608 193.128 180.627 193 177.693C191.797 149.612 178.222 122.552 156.265 104.967C153.988 103.163 150.744 106.37 153.04 108.193Z" fill="#414042"/>
<path d="M154.552 106.188C150.197 102.179 146.845 98.0064 143.875 92.977C143.273 91.9565 141.797 91.501 140.759 92.157C139.72 92.8312 139.301 94.1797 139.939 95.273C143.018 100.503 146.863 105.295 151.327 109.414C152.202 110.215 153.696 110.343 154.552 109.414C155.354 108.539 155.482 107.063 154.552 106.188Z" fill="#414042"/>
<path d="M156.484 110.252C156.192 103.382 156.794 96.5486 158.306 89.8427C158.944 86.9818 154.571 85.7609 153.915 88.6401C152.311 95.7286 151.619 102.999 151.928 110.27C152.038 113.186 156.593 113.204 156.484 110.252Z" fill="#414042"/>
<path d="M158.452 107.3C162.861 104.33 166.943 100.849 170.551 96.9313C171.353 96.0566 171.48 94.5624 170.551 93.7059C169.676 92.9041 168.182 92.7766 167.326 93.7059C165.613 95.5646 163.791 97.3322 161.877 98.9904C161.404 99.3913 160.93 99.7922 160.438 100.193C160.201 100.394 159.946 100.594 159.709 100.776C159.6 100.867 159.49 100.94 159.381 101.031C159.636 100.831 159.381 101.031 159.272 101.122C158.251 101.906 157.213 102.653 156.138 103.364C155.154 104.02 154.625 105.405 155.318 106.48C155.974 107.464 157.395 108.01 158.452 107.3Z" fill="#414042"/>
<path d="M151.036 107.008C144.804 105.405 138.973 102.69 133.725 98.9539C132.723 98.2433 131.192 98.7717 130.609 99.7739C129.935 100.922 130.427 102.179 131.429 102.89C136.969 106.826 143.255 109.705 149.833 111.4C152.657 112.129 153.878 107.737 151.036 107.008Z" fill="#414042"/>
<path d="M161.039 112.129C164.738 111.236 168.437 110.361 172.136 109.468C173.302 109.195 174.104 107.81 173.722 106.662C173.339 105.459 172.155 104.767 170.915 105.077C167.216 105.97 163.517 106.844 159.819 107.737C158.652 108.01 157.851 109.395 158.233 110.543C158.634 111.746 159.8 112.42 161.039 112.129Z" fill="#414042"/>
<path d="M118.31 176.818C120.442 181.848 128.404 182.431 133.014 183.251C139.52 184.417 146.116 185.018 152.73 184.982C165.886 184.945 179.006 182.522 191.287 177.839C194.002 176.8 192.818 172.39 190.084 173.447C178.915 177.711 167.143 180.098 155.19 180.408C149.268 180.554 143.328 180.244 137.461 179.388C134.49 178.95 131.557 178.385 128.641 177.693C126.436 177.183 123.248 176.855 122.246 174.504C121.098 171.825 117.18 174.158 118.31 176.818Z" fill="#414042"/>
</g>
<path d="M1206.88 132.226H1194.59V135.214H1206.79" stroke="black" stroke-width="3" stroke-miterlimit="10" stroke-linecap="round" stroke-linejoin="round"/>
<path d="M1185 106.748L1167.38 91.807C1167.38 72.3026 1175.25 69 1185 69C1194.75 69 1202.62 72.3026 1202.62 91.807L1185 106.748Z" stroke="black" stroke-width="3" stroke-miterlimit="10" stroke-linecap="round" stroke-linejoin="round"/>
<path d="M1167.38 91.807C1167.38 87.3344 1170.44 83.267 1174.29 82.8424C1177.76 82.4599 1181.87 85.5162 1185 85.5162C1188.13 85.5162 1192.24 82.4599 1195.71 82.8424C1199.56 83.267 1202.62 87.3344 1202.62 91.807" stroke="black" stroke-width="3" stroke-miterlimit="10" stroke-linecap="round" stroke-linejoin="round"/>
<path d="M1167.87 84.2587C1160.77 84.2587 1153.22 86.4593 1150.08 103.287L1143 139.618L1154.17 142.448L1162.5 111.464L1163.92 159.12H1185H1206.08L1207.5 111.464L1215.83 142.448L1227 139.618L1219.92 103.287C1216.77 86.4593 1209.22 84.2587 1202.13 84.2587" stroke="black" stroke-width="3" stroke-miterlimit="10" stroke-linecap="round" stroke-linejoin="round"/>
<path d="M1163.12 132.226H1175.41V135.214H1163.21" stroke="black" stroke-width="3" stroke-miterlimit="10" stroke-linecap="round" stroke-linejoin="round"/>
<path d="M1185 106.748V159.12" stroke="black" stroke-width="3" stroke-miterlimit="10" stroke-linecap="round" stroke-linejoin="round"/>
<path d="M1108.93 457.619L1112.65 461.338L1116.37 457.619L1120.09 461.338L1123.82 457.619L1127.54 461.338L1131.26 457.619L1134.98 461.338L1138.7 457.619L1142.41 461.338L1146.14 457.619L1149.86 461.338L1153.58 457.619H1175.9L1179.62 461.338L1183.35 457.619L1187.06 461.338L1190.79 457.619L1194.51 461.338L1198.23 457.619L1201.95 461.338L1205.67 457.619L1209.39 461.338L1213.11 457.619V452.305H1108.93V457.619Z" stroke="black" stroke-width="3" stroke-miterlimit="10" stroke-linecap="round" stroke-linejoin="round"/>
<path d="M1108.93 452.305C1108.93 444.652 1112.44 434.45 1129.34 434.45C1146.24 434.45 1162.82 420.742 1172.87 399.54C1172.87 399.54 1213.11 397.463 1213.11 418.669C1213.11 439.875 1213.11 452.305 1213.11 452.305" stroke="black" stroke-width="3" stroke-miterlimit="10" stroke-linecap="round" stroke-linejoin="round"/>
<path d="M1189.61 452.305C1189.61 440.987 1199.15 427.116 1213.12 427.116" stroke="black" stroke-width="3" stroke-miterlimit="10" stroke-linecap="round" stroke-linejoin="round"/>
<path d="M1141.09 432.264C1146.75 437.923 1146.24 448 1143.21 452.305" stroke="black" stroke-width="3" stroke-miterlimit="10" stroke-linecap="round" stroke-linejoin="round"/>
<path d="M1107 463.202L1109.2 457.846L1112.36 461.005L1107 463.202Z" stroke="black" stroke-width="3" stroke-miterlimit="10" stroke-linecap="round" stroke-linejoin="round"/>
<path d="M1173.78 463.07L1175.98 457.714L1179.13 460.869L1173.78 463.07Z" stroke="black" stroke-width="3" stroke-miterlimit="10" stroke-linecap="round" stroke-linejoin="round"/>
<path d="M1155.48 463.202L1153.28 457.846L1150.16 461.039L1155.48 463.202Z" stroke="black" stroke-width="3" stroke-miterlimit="10" stroke-linecap="round" stroke-linejoin="round"/>
<path d="M1215 463.202L1212.8 457.846L1209.68 461.039L1215 463.202Z" stroke="black" stroke-width="3" stroke-miterlimit="10" stroke-linecap="round" stroke-linejoin="round"/>
<path d="M1152.44 434.855L1148.25 428.92" stroke="black" stroke-width="3" stroke-miterlimit="10" stroke-linecap="round" stroke-linejoin="round"/>
<path d="M1161.02 429.185L1155.48 423.416" stroke="black" stroke-width="3" stroke-miterlimit="10" stroke-linecap="round" stroke-linejoin="round"/>
<path d="M1168.4 420.999L1162.19 416.475" stroke="black" stroke-width="3" stroke-miterlimit="10" stroke-linecap="round" stroke-linejoin="round"/>
<path d="M1173.78 413.15L1167.33 409.481" stroke="black" stroke-width="3" stroke-miterlimit="10" stroke-linecap="round" stroke-linejoin="round"/>
<path d="M1179.13 404.794L1171.66 401.987" stroke="black" stroke-width="3" stroke-miterlimit="10" stroke-linecap="round" stroke-linejoin="round"/>
<path d="M1173.78 399.51L1176.46 392.005C1176.46 392.005 1190.68 391.494 1191.57 400.875" stroke="black" stroke-width="3" stroke-miterlimit="10" stroke-linecap="round" stroke-linejoin="round"/>
<path d="M162.531 470.77C162.768 470.92 162.91 471.033 162.99 471.103C162.991 471.169 162.989 471.257 162.983 471.37C162.963 471.772 162.9 472.317 162.793 472.979C162.58 474.298 162.21 475.951 161.747 477.614C161.283 479.281 160.74 480.904 160.193 482.177C159.919 482.816 159.66 483.326 159.431 483.696C159.347 483.83 159.278 483.929 159.225 483.999C159.09 484.002 158.906 483.998 158.665 483.979C157.958 483.925 156.985 483.764 155.8 483.501C153.445 482.979 150.466 482.1 147.527 481.072C144.584 480.042 141.751 478.888 139.674 477.83C138.626 477.296 137.842 476.822 137.343 476.439C137.233 476.355 137.15 476.284 137.087 476.227C137.127 474.962 137.587 472.563 138.398 470.179C138.837 468.892 139.34 467.724 139.857 466.846C140.115 466.409 140.352 466.085 140.555 465.864C140.695 465.712 140.789 465.642 140.831 465.614C140.863 465.609 140.917 465.601 140.998 465.593C141.198 465.574 141.479 465.565 141.849 465.573C142.586 465.59 143.553 465.674 144.694 465.822C146.97 466.118 149.8 466.653 152.598 467.328C155.403 468.006 158.109 468.808 160.157 469.625C161.187 470.036 161.986 470.425 162.531 470.77ZM159.438 483.983C159.452 483.98 159.46 483.978 159.461 483.979C159.461 483.979 159.454 483.981 159.438 483.983ZM136.926 476.06C136.927 476.061 136.93 476.065 136.937 476.074C136.929 476.065 136.926 476.06 136.926 476.06Z" stroke="black" stroke-width="4"/>
<path d="M134.302 437.997L134.303 437.996C134.612 437.403 135.213 436.94 136.282 436.675C137.373 436.403 138.768 436.396 140.261 436.609C141.737 436.82 143.183 437.229 144.318 437.686C144.886 437.914 145.343 438.141 145.671 438.34C145.963 438.516 146.062 438.617 146.064 438.615C146.064 438.615 146.064 438.614 146.063 438.613C146.311 438.944 146.8 439.447 147.594 439.583C148.474 439.734 149.153 439.344 149.525 439.02C150.151 438.473 150.463 437.662 150.631 437.144C151.028 435.92 151.271 434.166 151.287 432.259C151.318 428.497 150.469 423.33 147.25 419.811C146.513 419.006 146.219 417.686 146.733 415.92C147.243 414.165 148.503 412.241 150.378 410.718C154.02 407.759 159.904 406.372 166.64 411.007L166.64 411.007C169.763 413.156 171.574 416.831 172.317 421.628C173.061 426.42 172.692 432.075 171.692 437.754C170.695 443.414 169.09 448.989 167.439 453.572C166.134 457.197 164.837 460.103 163.834 461.923C163.563 461.835 163.261 461.737 162.932 461.631C161.447 461.153 159.403 460.508 157.17 459.835C153.768 458.812 149.815 457.693 146.725 457.035C146.883 456.517 147.032 455.935 147.144 455.309C147.563 452.981 147.531 449.654 145.016 447.035C143.883 445.854 142.36 444.857 140.933 443.995C140.371 443.656 139.831 443.341 139.308 443.036C138.412 442.514 137.569 442.023 136.762 441.492C135.488 440.654 134.694 439.956 134.319 439.353C134.152 439.086 134.102 438.89 134.095 438.738C134.087 438.591 134.114 438.357 134.302 437.997Z" stroke="black" stroke-width="4"/>
<path d="M98.0454 483.979C97.8046 483.998 97.62 484.002 97.4851 483.999C97.4322 483.929 97.3631 483.83 97.2795 483.696C97.05 483.326 96.7915 482.816 96.5171 482.177C95.9698 480.904 95.4271 479.281 94.9631 477.614C94.5 475.951 94.1306 474.298 93.917 472.979C93.8098 472.317 93.7474 471.772 93.727 471.37C93.7212 471.257 93.7197 471.169 93.7199 471.103C93.8003 471.033 93.9425 470.92 94.1796 470.77C94.7247 470.425 95.5235 470.036 96.5532 469.625C98.6009 468.808 101.307 468.006 104.112 467.328C106.91 466.653 109.74 466.118 112.016 465.822C113.157 465.674 114.124 465.59 114.862 465.573C115.231 465.565 115.512 465.574 115.712 465.593C115.793 465.601 115.848 465.609 115.879 465.614C115.921 465.642 116.015 465.712 116.155 465.864C116.358 466.085 116.596 466.409 116.854 466.846C117.37 467.724 117.874 468.892 118.312 470.179C119.123 472.563 119.583 474.962 119.624 476.227C119.561 476.284 119.477 476.355 119.367 476.439C118.868 476.822 118.084 477.296 117.036 477.83C114.959 478.888 112.126 480.042 109.184 481.072C106.245 482.1 103.266 482.979 100.91 483.501C99.7254 483.764 98.7527 483.925 98.0454 483.979ZM119.784 476.06C119.784 476.06 119.781 476.065 119.774 476.075C119.78 476.065 119.784 476.061 119.784 476.06ZM97.2725 483.983C97.2564 483.981 97.2491 483.979 97.2495 483.979C97.2499 483.978 97.258 483.98 97.2725 483.983Z" stroke="black" stroke-width="4"/>
<path d="M109.047 455.303C109.158 455.933 109.306 456.52 109.463 457.04C106.426 457.7 102.547 458.817 99.2134 459.838C97.0184 460.511 95.0104 461.156 93.5515 461.634C93.246 461.734 92.9644 461.827 92.7101 461.911C91.726 460.089 90.4566 457.192 89.1802 453.583C87.5585 448.998 85.9811 443.422 85.0011 437.76C84.0179 432.079 83.6553 426.42 84.3864 421.622C85.1187 416.816 86.9011 413.141 89.9623 410.998L89.9625 410.998C93.3224 408.644 96.4146 407.881 99.0533 408.015C101.709 408.149 104.048 409.201 105.87 410.707C107.708 412.227 108.947 414.15 109.45 415.911C109.958 417.687 109.666 419.017 108.941 419.824C105.779 423.343 104.946 428.503 104.978 432.259C104.993 434.164 105.231 435.913 105.621 437.134C105.785 437.648 106.09 438.459 106.708 439.008C107.075 439.334 107.759 439.738 108.652 439.582C109.473 439.439 109.963 438.905 110.198 438.578C110.187 438.594 110.181 438.602 110.181 438.602C110.183 438.604 110.279 438.506 110.561 438.332C110.881 438.134 111.328 437.908 111.884 437.681C112.995 437.226 114.411 436.819 115.855 436.608C117.316 436.396 118.677 436.404 119.738 436.673C120.772 436.934 121.356 437.389 121.661 437.983L121.662 437.985C121.848 438.346 121.876 438.585 121.868 438.74C121.86 438.899 121.809 439.099 121.645 439.366C121.276 439.968 120.499 440.665 119.25 441.501C118.457 442.032 117.631 442.522 116.751 443.043C116.238 443.348 115.707 443.663 115.153 444.003C113.75 444.866 112.251 445.865 111.136 447.047C108.666 449.666 108.637 452.984 109.047 455.303Z" stroke="black" stroke-width="4"/>
<path opacity="0.85" fill-rule="evenodd" clip-rule="evenodd" d="M650.632 108.44C679.087 108.44 708.089 83.0606 708.089 56.2062C708.089 29.3689 680.491 2 652.02 2C623.582 2 595.282 30.0034 595.282 56.8407C595.282 83.7123 622.195 108.44 650.632 108.44ZM762.737 263.942C762.737 237.757 762.737 210.01 762.737 183.379C762.737 157.039 764.587 159.577 762.737 143.097C755.628 122.948 741.392 116.243 727.173 116.243C696.749 116.243 686.676 116.243 663.155 116.243C634.563 116.243 620.687 116.157 592.233 116.157C578.014 116.157 568.746 115.283 558.194 124.32C543.804 139.719 545.243 141.057 545.243 184.031C545.243 205.26 545.243 242.318 545.243 266.017C545.243 287.23 541.44 320.241 563.95 320.241C585.312 320.241 585.106 305.853 585.106 284.435C585.106 254.168 585.038 246.314 585.038 228.445C585.038 208.896 583.856 205.586 588.019 205.586C592.216 205.586 592.164 205.843 592.164 226.61C592.164 245.851 592.01 516.847 592.01 532.504C592.01 545.931 599.599 560.318 621.03 560.318C642.392 560.318 651.3 548.52 651.3 535.093C651.3 510.897 651.3 405.571 651.3 394.116C651.3 380.689 651.78 374.172 655.309 374.172C658.889 374.172 658.427 380.672 658.427 394.116C658.427 406.223 658.427 510.279 658.427 535.093C658.427 543.427 667.815 561.588 689.16 561.588C703.396 561.588 716.466 544.336 716.466 535.385C716.466 481.676 716.792 242.695 716.792 225.804C716.792 216.647 715.953 205.02 719.601 205.02C723.216 205.02 723.165 208.176 723.165 221.38C723.165 236.522 723.165 251.853 723.165 273.082C723.165 308.391 728.972 317.651 743.208 317.651C764.536 317.651 762.737 283.166 762.737 263.942Z" stroke="#066499" stroke-width="3" stroke-miterlimit="10"/>
<defs>
<clipPath id="clip0">
<rect width="75" height="98" fill="white" transform="translate(118 87)"/>
</clipPath>
</defs>
</svg>
