<svg width="105" height="97" viewBox="0 0 105 97" fill="none" xmlns="http://www.w3.org/2000/svg">
<path d="M103.061 63.5411V52.523C103.061 24.619 80.4385 2 52.5304 2C24.6224 2 2 24.6235 2 52.523H34.8665C34.8665 42.7689 42.7749 34.8617 52.5304 34.8617C62.2859 34.8617 70.1943 42.7689 70.1943 52.523C70.1943 59.9909 72.9202 63.5366 79.5688 63.5366C86.2174 63.5411 103.061 63.5411 103.061 63.5411Z" fill="#BFBFBD" fill-opacity="0.5" stroke="black" stroke-width="3" stroke-miterlimit="10" stroke-linecap="round" stroke-linejoin="round"/>
<path d="M96.0308 52.523C96.0308 28.5009 76.5557 9.02417 52.5256 9.02417" stroke="black" stroke-width="3" stroke-miterlimit="10" stroke-linecap="round" stroke-linejoin="round"/>
<path d="M34.8669 52.5233C34.8669 73.7303 43.663 75.9447 52.5309 75.9447" stroke="black" stroke-width="3" stroke-miterlimit="10" stroke-linecap="round" stroke-linejoin="round"/>
<path d="M70.1942 52.5233C70.1942 73.7303 61.3981 75.9447 52.5303 75.9447V95.0001" stroke="black" stroke-width="3" stroke-miterlimit="10" stroke-linecap="round" stroke-linejoin="round"/>
<path d="M30.6702 40.9985C30.6702 43.567 28.5855 45.6514 26.0166 45.6514C23.4477 45.6514 21.363 43.567 21.363 40.9985C21.363 38.43 23.4477 36.3456 26.0166 36.3456C28.5855 36.3411 30.6702 38.4255 30.6702 40.9985Z" stroke="black" stroke-width="3" stroke-miterlimit="10" stroke-linecap="round" stroke-linejoin="round"/>
</svg>
