<svg width="110" height="110" viewBox="0 0 110 110" fill="none" xmlns="http://www.w3.org/2000/svg">
<path d="M4.69395 102.365C11.0476 96.0606 18.231 90.6326 26.0071 86.2002C27.2873 85.4655 28.686 84.6596 29.255 83.2849C29.5869 82.479 29.5632 81.5546 29.5395 80.6776C28.9231 56.3587 28.3067 32.0397 27.6903 7.7207C23.6126 9.73543 19.606 11.8687 15.6706 14.0967C13.2287 15.4715 7.01729 17.7706 5.5 20.1409C3.76935 22.843 4.83619 29.859 4.74136 33.0589C4.59912 37.752 4.50428 42.4451 4.40945 47.1145C4.2435 56.5008 4.19609 65.8633 4.2435 75.2496C4.26721 79.7768 4.31463 84.2804 4.38575 88.8076C4.43316 90.9172 5.99786 101.086 4.69395 102.365Z" fill="#F0EBE7"/>
<path d="M60.4067 103.669C66.8789 97.6253 73.351 91.5574 79.8232 85.5132C80.4633 84.9207 81.1034 84.3045 81.459 83.4986C81.9569 82.3371 81.7198 80.986 81.4827 79.7535C76.7886 55.4108 74.6076 30.5704 74.9395 5.77734C74.9395 6.34621 66.2151 11.3002 65.2193 12.0823C62.327 14.3815 58.4627 17.3444 56.5187 20.5442C52.844 26.6358 55.9497 38.25 56.4238 45.3134C57.7752 64.7496 59.1028 84.2095 60.4067 103.669Z" fill="#F0EBE7"/>
<path d="M30.3692 78.8766C30.464 80.0144 30.5588 81.1995 31.0804 82.2424C31.6494 83.4275 32.6925 84.3046 33.7119 85.1342C42.0807 92.0791 50.4495 99.0002 58.8183 105.945C58.7708 93.3352 57.8937 80.7491 57.0165 68.1867C56.0445 54.2258 55.0962 40.2412 54.1241 26.2803C53.9819 24.2893 53.7922 22.1561 52.4883 20.6628C51.8482 19.928 51.0185 19.4066 50.1887 18.9088C47.083 17.0126 33.9016 6.70187 31.1041 9.21436C28.354 11.6794 30.8433 27.9632 30.7722 31.8979C30.4403 47.5891 30.3692 63.1854 30.3692 78.8766Z" fill="#BFBFBD"/>
<path d="M82.8582 79.2791C83.1664 80.8672 83.4746 82.479 84.257 83.8774C85.0156 85.2996 86.201 86.4373 87.3626 87.5513C93.7637 93.7377 100.188 99.9242 106.589 106.134C105.665 81.4124 103.958 56.7378 101.492 32.1107C101.184 28.9819 100.829 25.7821 99.4772 22.9378C98.0548 19.9512 95.6129 17.581 93.171 15.3766C90.6106 13.0537 79.6814 1.67655 76.6231 4.66309C75.2718 5.96673 76.4809 14.4997 76.5046 16.4907C76.5757 20.7335 76.7179 24.9763 76.9076 29.219C77.7374 46.0242 79.7288 62.7583 82.8582 79.2791Z" fill="#BFBFBD"/>
<path d="M2.60722 19.9508C1.96711 47.7778 1.35071 75.6047 0.710606 103.432C0.639483 106.134 4.85944 106.134 4.90685 103.432C5.54696 75.6047 6.16335 47.7778 6.80346 19.9508C6.87458 17.2487 2.65463 17.2487 2.60722 19.9508Z" fill="black"/>
<path d="M5.09677 21.6579C14.485 18.221 22.593 12.4849 31.3648 7.86286C33.7592 6.60661 31.6256 2.95645 29.2311 4.23641C20.7912 8.69254 12.9914 14.3337 3.95881 17.6284C1.4458 18.5291 2.53635 22.5823 5.09677 21.6579Z" fill="black"/>
<path d="M3.69783 106.466C13.2757 99.0471 22.8773 91.6281 32.4551 84.1855C34.5888 82.5263 31.6017 79.5872 29.4917 81.2227C19.9138 88.6416 10.3122 96.0606 0.734379 103.503C-1.3993 105.162 1.58785 108.102 3.69783 106.466Z" fill="black"/>
<path d="M28.1876 6.03708C28.1876 32.3234 28.1876 58.6098 28.1876 84.8961C28.1876 87.5983 32.3839 87.5983 32.3839 84.8961C32.3839 58.6098 32.3839 32.3234 32.3839 6.03708C32.4076 3.33497 28.1876 3.33497 28.1876 6.03708Z" fill="black"/>
<path d="M29.492 85.3942C38.7143 91.5806 47.1305 98.7387 54.7643 106.798C56.6372 108.765 59.6007 105.802 57.7278 103.835C49.8569 95.5152 41.1088 88.1436 31.602 81.7676C29.3735 80.2506 27.2635 83.8772 29.492 85.3942Z" fill="black"/>
<path d="M31.0091 9.54546C38.5481 14.4993 46.2293 19.2162 54.0528 23.7197C56.3999 25.0707 58.5099 21.4443 56.1865 20.0932C48.363 15.5897 40.7055 10.8727 33.1427 5.91887C30.8668 4.4256 28.7568 8.07589 31.0091 9.54546Z" fill="black"/>
<path d="M52.0611 22.7482C53.9103 49.9589 55.7358 77.1696 57.585 104.38C57.7747 107.059 61.9709 107.082 61.7813 104.38C59.9321 77.1696 58.1066 49.9589 56.2574 22.7482C56.0914 20.0698 51.8715 20.0461 52.0611 22.7482Z" fill="black"/>
<path d="M55.8309 24.1226C63.6781 17.7939 71.0749 10.9676 77.9738 3.61975C79.823 1.65242 76.8595 -1.33413 75.0103 0.656906C68.1114 8.00477 60.7147 14.8311 52.8674 21.1597C50.7575 22.8426 53.7446 25.8055 55.8309 24.1226Z" fill="black"/>
<path d="M73.5642 3.26448C74.8681 30.2382 76.8833 57.1644 79.6097 84.0196C79.8704 86.6743 84.0904 86.7217 83.8059 84.0196C81.0795 57.1644 79.0407 30.2382 77.7605 3.26448C77.6419 0.562375 73.4457 0.538673 73.5642 3.26448Z" fill="black"/>
<path d="M59.5057 108.528C67.021 100.896 74.7971 93.5003 82.8102 86.3658C84.8254 84.5644 81.8619 81.6015 79.8468 83.4029C71.8336 90.5374 64.0813 97.9328 56.5422 105.565C54.6456 107.485 57.6091 110.472 59.5057 108.528Z" fill="black"/>
<path d="M81.5059 85.6071C88.9026 91.3668 95.6356 97.8614 101.634 105.067C103.364 107.153 106.328 104.166 104.597 102.104C98.599 94.8986 91.8661 88.404 84.4693 82.6443C82.3593 80.9851 79.3722 83.9479 81.5059 85.6071Z" fill="black"/>
<path d="M76.0299 3.88082C83.7111 10.8968 91.6295 17.6522 99.7849 24.0994C101.895 25.7586 104.882 22.7957 102.748 21.1365C94.5929 14.6657 86.6746 7.93398 78.9933 0.89425C77.0019 -0.907162 74.0384 2.05571 76.0299 3.88082Z" fill="black"/>
<path d="M99.8323 23.6725C101.539 51.6891 103.246 79.7057 104.929 107.722C106.115 107.225 107.324 106.727 108.509 106.229C107.656 105.447 106.802 104.688 105.949 103.906C103.957 102.081 100.97 105.068 102.985 106.869C103.839 107.651 104.692 108.41 105.546 109.192C106.802 110.33 109.244 109.619 109.126 107.699C107.419 79.682 105.712 51.6655 104.029 23.6489C103.863 20.9942 99.6664 20.9703 99.8323 23.6725Z" fill="black"/>
</svg>
