<svg width="96" height="102" viewBox="0 0 96 102" fill="none" xmlns="http://www.w3.org/2000/svg">
<path opacity="0.85" fill-rule="evenodd" clip-rule="evenodd" d="M22.1509 20.6408C17.0734 20.6408 11.8981 16.1961 11.8981 11.4931C11.8981 6.79309 16.8227 2 21.9033 2C26.9777 2 32.0276 6.9042 32.0276 11.6042C32.0276 16.3102 27.2253 20.6408 22.1509 20.6408ZM2.14673 47.8737C2.14673 43.2878 2.14673 38.4287 2.14673 33.7647C2.14673 29.1518 1.81659 29.5963 2.14673 26.7102C3.41533 23.1815 5.95559 22.0072 8.49279 22.0072C13.9218 22.0072 15.7192 22.0072 19.9163 22.0072C25.0182 22.0072 27.4943 21.9922 32.5717 21.9922C35.1089 21.9922 36.7627 21.8391 38.6457 23.4217C41.2135 26.1186 40.9567 26.3528 40.9567 33.8788C40.9567 37.5968 40.9567 44.0867 40.9567 48.2371C40.9567 51.952 41.6353 57.7331 37.6186 57.7331C33.8067 57.7331 33.8434 55.2135 33.8434 51.4625C33.8434 46.1619 33.8556 44.7864 33.8556 41.6571C33.8556 38.2335 34.0665 37.6538 33.3237 37.6538C32.5748 37.6538 32.584 37.6989 32.584 41.3357C32.584 44.7053 32.6115 92.1647 32.6115 94.9066C32.6115 97.2581 31.2573 99.7778 27.4331 99.7778C23.6212 99.7778 22.0316 97.7116 22.0316 95.3601C22.0316 91.1226 22.0316 72.677 22.0316 70.6709C22.0316 68.3194 21.9461 67.1782 21.3163 67.1782C20.6775 67.1782 20.76 68.3164 20.76 70.6709C20.76 72.7911 20.76 91.0145 20.76 95.3601C20.76 96.8196 19.0848 100 15.276 100C12.7357 100 10.4033 96.9788 10.4033 95.4111C10.4033 86.0052 10.3452 44.1527 10.3452 41.1946C10.3452 39.5909 10.495 37.5547 9.84392 37.5547C9.19892 37.5547 9.20809 38.1073 9.20809 40.4198C9.20809 43.0716 9.20809 45.7564 9.20809 49.4744C9.20809 55.6579 8.17182 57.2797 5.63156 57.2797C1.82576 57.2797 2.14673 51.2403 2.14673 47.8737Z" stroke="black" stroke-width="4" stroke-miterlimit="10"/>
<path opacity="0.85" fill-rule="evenodd" clip-rule="evenodd" d="M75.1509 20.6408C70.0734 20.6408 64.8981 16.1961 64.8981 11.4931C64.8981 6.79309 69.8227 2 74.9033 2C79.9777 2 85.0276 6.9042 85.0276 11.6042C85.0276 16.3102 80.2253 20.6408 75.1509 20.6408ZM55.1467 47.8737C55.1467 43.2878 55.1467 38.4287 55.1467 33.7647C55.1467 29.1518 54.8166 29.5963 55.1467 26.7102C56.4153 23.1815 58.9556 22.0072 61.4928 22.0072C66.9218 22.0072 68.7192 22.0072 72.9163 22.0072C78.0182 22.0072 80.4943 21.9922 85.5717 21.9922C88.1089 21.9922 89.7627 21.8391 91.6457 23.4217C94.2135 26.1186 93.9567 26.3528 93.9567 33.8788C93.9567 37.5968 93.9567 44.0867 93.9567 48.2371C93.9567 51.952 94.6353 57.7331 90.6186 57.7331C86.8067 57.7331 86.8434 55.2135 86.8434 51.4625C86.8434 46.1619 86.8556 44.7864 86.8556 41.6571C86.8556 38.2335 87.0665 37.6538 86.3237 37.6538C85.5748 37.6538 85.584 37.6989 85.584 41.3357C85.584 44.7053 85.6115 92.1647 85.6115 94.9066C85.6115 97.2581 84.2573 99.7778 80.4331 99.7778C76.6212 99.7778 75.0316 97.7116 75.0316 95.3601C75.0316 91.1226 75.0316 72.677 75.0316 70.6709C75.0316 68.3194 74.9461 67.1782 74.3163 67.1782C73.6775 67.1782 73.76 68.3164 73.76 70.6709C73.76 72.7911 73.76 91.0145 73.76 95.3601C73.76 96.8196 72.0848 100 68.276 100C65.7357 100 63.4033 96.9788 63.4033 95.4111C63.4033 86.0052 63.3452 44.1527 63.3452 41.1946C63.3452 39.5909 63.495 37.5547 62.8439 37.5547C62.1989 37.5547 62.2081 38.1073 62.2081 40.4198C62.2081 43.0716 62.2081 45.7564 62.2081 49.4744C62.2081 55.6579 61.1718 57.2797 58.6316 57.2797C54.8258 57.2797 55.1467 51.2403 55.1467 47.8737Z" fill="#BFBFBD" fill-opacity="0.5" stroke="black" stroke-width="4" stroke-miterlimit="10"/>
</svg>
