<?xml version="1.0" encoding="utf-8"?>
<!-- Generator: Adobe Illustrator 23.0.6, SVG Export Plug-In . SVG Version: 6.00 Build 0)  -->
<svg version="1.1" id="Layer_1" xmlns="http://www.w3.org/2000/svg" xmlns:xlink="http://www.w3.org/1999/xlink" x="0px" y="0px"
	 viewBox="0 0 193 122" style="enable-background:new 0 0 193 122;" xml:space="preserve">
<style type="text/css">
	.st0{fill:#999999;stroke:#000000;stroke-width:4;stroke-linecap:round;stroke-linejoin:round;stroke-miterlimit:10;}
	.st1{fill:none;stroke:#FFFFFF;stroke-width:3.3624;stroke-linecap:round;stroke-linejoin:round;stroke-miterlimit:10;}
	.st2{fill:#FFFFFF;}
	.st3{fill:#FFFFFF;stroke:#000000;stroke-width:4;stroke-linecap:round;stroke-linejoin:round;stroke-miterlimit:10;}
	.st4{fill:none;stroke:#FFFFFF;stroke-linecap:round;stroke-linejoin:round;stroke-miterlimit:10;}
	.st5{fill:none;stroke:#FFFFFF;stroke-width:0.9701;stroke-linecap:round;stroke-linejoin:round;stroke-miterlimit:10;}
	.st6{fill:none;}
	.st7{font-family:'ArialMT';}
	.st8{font-size:48px;}
</style>
<path class="st0" d="M69.9,31.4L6.5,116h126.9L69.9,31.4z"/>
<path class="st0" d="M110.3,86.4L138.4,49l50.1,66.8h-56.1"/>
<g>
	<g>
		<g>
			<g>
				<line class="st1" x1="52" y1="59.9" x2="71" y2="37"/>
				<line class="st1" x1="90" y1="64" x2="71" y2="37"/>
			</g>
			<line class="st1" x1="52" y1="59.9" x2="90" y2="64"/>
		</g>
		<g>
			<g>
				<path class="st2" d="M56.9,59.3c9.7,0.6,19.3,1.9,28.7,4.1c1.6,0.4,2.2-1.8,0.7-2.4c-3.1-1.2-5.6-3.6-7.7-6.1
					c-2.5-2.9-4.7-6-6.9-9.2c-0.8-1.2-1.7-2.6-3.3-1.9c-1.5,0.6-2.6,2.5-3.7,3.7c-2.2,2.5-5.3,5.1-6.4,8.4c-0.3,0.8,0.4,1.5,1.2,1.6
					c2.3,0.2,4.5,0.8,6.5,2c0.9,0.5,2.2-0.4,1.9-1.4c-0.6-1.9-1.4-3.7-2.6-5.4c-0.6-0.9-2.5-0.7-2.3,0.6c0.3,2.2,1.1,4.1,2.5,5.9
					c0.5-0.7,1-1.3,1.5-2c-1.5-0.9-3-1.8-4.5-2.7c-1.2-0.7-2.7,1.1-1.5,2s2.4,1.7,3.8,2.3c0.8,0.3,1.6,0.1,1.9-0.8
					c0.4-1.3,0.4-2.6-0.1-3.9c-0.7,0.4-1.4,0.8-2.1,1.2c1.6,1.5,3.5,2.6,5.6,3.1c1.1,0.3,2-0.9,1.4-1.9c-1.1-2-2.4-3.9-3.9-5.6
					c-0.6,0.6-1.2,1.2-1.8,1.8c1.6,1.8,3.4,3.4,5.4,4.9c1,0.7,2.4-0.7,1.7-1.7c-1.9-2.4-3.9-4.7-6-6.9c-1-1-2.8,0.3-2,1.5
					c2.2,3.2,4.8,6.1,7.9,8.5c1.1,0.9,2.6-0.2,2-1.5c-2.1-4.4-4.5-8.6-7.1-12.6c-0.7,0.4-1.5,0.8-2.2,1.3c2,2.9,4,5.7,6.1,8.5
					c1,1.3,2,2.8,3.2,4c0.8,0.8,1.9,1.1,2.8,0.2c0.4-0.4,0.5-1,0.2-1.5c-2.1-3.9-4.3-7.7-6.6-11.5c-0.7,0.4-1.5,0.8-2.2,1.3
					c3.2,4.7,6.6,9.2,10.3,13.6c0.8,0.9,2.5-0.1,2.1-1.2c-1.9-5.7-5.1-10.8-9.4-15c-1.2-1.1-2.9,0.6-1.8,1.8
					c3.9,3.9,6.9,8.6,8.7,13.9c0.7-0.4,1.4-0.8,2.1-1.2c-3.6-4.1-6.9-8.5-9.9-13c-0.9-1.3-3-0.1-2.2,1.3c2.3,3.8,4.5,7.6,6.6,11.5
					c0.1-0.5,0.1-1,0.2-1.5l-0.1,0.1c0.3-0.1,0.6-0.2,0.9-0.4c-0.2,0-1.8-2.3-2-2.6c-0.8-1-1.6-2.1-2.4-3.1c-1.5-2-3-4.1-4.4-6.2
					c-0.9-1.3-3.1-0.1-2.2,1.3c2.7,4,5.1,8.2,7.1,12.6c0.7-0.5,1.3-1,2-1.5c-2.9-2.3-5.4-4.9-7.5-8c-0.7,0.5-1.3,1-2,1.5
					c2,2.1,3.8,4.2,5.5,6.5c0.6-0.6,1.2-1.2,1.7-1.7c-1.8-1.3-3.4-2.8-4.8-4.5c-1.1-1.2-2.8,0.6-1.8,1.8c1.3,1.6,2.5,3.3,3.5,5.1
					c0.5-0.6,0.9-1.2,1.4-1.9c-1.7-0.4-3.2-1.2-4.5-2.4c-0.8-0.8-2.6,0-2.1,1.2c0.4,0.9,0.4,1.6,0.1,2.6c0.6-0.3,1.2-0.5,1.9-0.8
					c-1.2-0.5-2.3-1.1-3.2-1.9c-0.5,0.7-1,1.3-1.5,2c1.5,0.9,3,1.8,4.5,2.7c1.3,0.8,2.4-0.9,1.5-2c-0.9-1.2-1.6-2.6-1.8-4.1
					c-0.8,0.2-1.6,0.4-2.3,0.6c1,1.5,1.8,3,2.3,4.8c0.6-0.5,1.2-0.9,1.9-1.4c-2.4-1.4-5-2.1-7.8-2.3c0.4,0.5,0.8,1.1,1.2,1.6
					c0.5-1.5,1.6-2.6,2.6-3.8c1.2-1.3,2.3-2.6,3.5-3.9c0.6-0.7,1.2-1.3,1.7-2c0.1-0.1,0.5-0.8,0.7-0.8c-0.5,0,0.2,0.6,0.3,0.8
					c1,1.5,2,2.9,3,4.3c3.5,4.8,7.4,9.9,13.1,12.2c0.2-0.8,0.4-1.6,0.7-2.4c-9.6-2.2-19.5-3.7-29.4-4.2
					C55.3,56.6,55.3,59.2,56.9,59.3L56.9,59.3z"/>
			</g>
		</g>
		<g>
			<g>
				<path class="st2" d="M69.4,48.2c-2.3,1.1-3.9,3-5.6,4.9C62.1,55,59.7,56.9,57,56c0.2,0.7,0.4,1.4,0.6,2.1
					c2.9-2.8,6.7-4.5,9.8-7.1c2.8-2.4,5.1-5.9,4.7-9.7c-0.2-1.3-2.2-1.9-2.5-0.3c-0.4,1.9-1.3,3.3-2.8,4.5c0.7,0.3,1.4,0.6,2.2,0.9
					c0.1-1.9,0.9-3.6,2.4-4.8c-0.7-0.2-1.4-0.4-2.1-0.6c0.9,4.1,2.9,7.6,5.6,10.7c3.1,3.5,6.3,6.9,9.4,10.3c1,1.1,2.5-0.3,2-1.5
					C82.8,53,75,48.4,71.9,40.7c-0.6-1.5-3.1-0.8-2.4,0.7c3.3,7.9,11.1,12.6,14.6,20.4c0.7-0.5,1.3-1,2-1.5
					c-2.9-3.2-5.9-6.4-8.8-9.7c-2.7-3-4.7-6.3-5.6-10.3c-0.2-1-1.4-1.1-2.1-0.6c-1.9,1.7-3,4.1-3.1,6.6c0,1.2,1.4,1.5,2.2,0.9
					c1.8-1.5,3-3.4,3.5-5.7c-0.8-0.1-1.7-0.2-2.5-0.3c0.5,3.7-2.2,6.7-5,8.7c-2.9,2.1-6.1,3.8-8.7,6.3c-0.7,0.7-0.3,1.8,0.6,2.1
					c2.8,1,5.7-0.3,7.8-2.1c2.2-1.9,3.7-4.6,6.4-5.9C72.1,49.7,70.8,47.5,69.4,48.2L69.4,48.2z"/>
			</g>
		</g>
		<g>
			<g>
				<path class="st2" d="M69.5,42.1c0.9,4.9,4.5,8.7,7.6,12.3c0.8,0.9,1.6,1.8,2.3,2.9c0.3,0.5,0.6,1.1,0.6,1.7c0,0.1,0,0.3,0,0.4
					c1-0.1,1.3-0.3,0.8-0.6c-0.1-0.2-0.5-0.4-0.7-0.6c-2.1-1.8-4.1-3.8-5.8-6c-0.4-0.5-1.1-0.8-1.7-0.5c-0.6,0.4-1.1,0.9-1.6,1.5
					c-0.9,1.4,1.3,2.6,2.2,1.3c0.2-0.3,0.4-0.4,0.6-0.6c-0.6-0.2-1.2-0.3-1.7-0.5c2,2.6,4.3,5,6.9,7.1c0.5,0.4,1.1,0.9,1.8,0.8
					c0.8,0,1.4-0.6,1.6-1.4c0.4-1.5-0.2-3.1-1-4.3c-3.2-4.8-8.4-8.3-9.5-14.3C71.6,39.9,69.2,40.5,69.5,42.1L69.5,42.1z"/>
			</g>
		</g>
	</g>
	<g>
		<g>
			<path class="st2" d="M65.8,47.1c-0.3,0.1-0.5,0.2-0.8,0.4c-0.2,0.1-0.5,0.3-0.7,0.5s-0.4,0.4-0.5,0.6c-0.1,0.2-0.3,0.5-0.3,0.7
				c-0.1,0.2-0.1,0.3,0,0.5c0,0.2,0.1,0.3,0.1,0.5c0.1,0.1,0.2,0.3,0.3,0.3c0.1,0.1,0.3,0.2,0.4,0.2c0.3,0.1,0.7,0.1,0.9-0.1
				c0.1-0.1,0.2-0.1,0.2-0.2c0.2-0.2,0.3-0.3,0.3-0.5v-0.1c0,0.1-0.1,0.2-0.1,0.3c0.1-0.2,0.2-0.3,0.3-0.5c-0.1,0.1-0.1,0.2-0.2,0.2
				c0.1-0.2,0.3-0.3,0.4-0.4c-0.1,0.1-0.2,0.1-0.2,0.2c0.2-0.1,0.4-0.3,0.6-0.3c-0.1,0-0.2,0.1-0.3,0.1h0.1c0.2,0,0.3-0.1,0.4-0.2
				c0.1-0.1,0.2-0.2,0.3-0.3c0.1-0.1,0.1-0.3,0.1-0.5s0-0.3,0-0.5c-0.1-0.3-0.3-0.6-0.6-0.7c-0.1,0-0.2-0.1-0.3-0.1
				C66.2,47.1,66,47.1,65.8,47.1L65.8,47.1z"/>
		</g>
	</g>
	<g>
		<g>
			<path class="st2" d="M71.6,60.5c1.6,0,1.6-2.4,0-2.4S70,60.5,71.6,60.5L71.6,60.5z"/>
		</g>
	</g>
	<g>
		<g>
			<path class="st2" d="M71.6,45.3c1.2,2.4,3.5,4,4.8,6.2c0.7,1.2,1.1,2.6,1.1,4c0,0.8-0.3,1-1.1,1.3c-0.8,0.3-1.6,0.5-2.4,0.7
				c-3,0.8-6.1,1.4-9.2,1.7c-1.5,0.2-3,0.3-4.5,0.4c-0.8,0-1.7,0.1-2.5,0.1c-0.4,0-0.8,0-1.1,0c-0.1,0-0.2,0-0.3,0
				c-0.4-0.2-0.6,0.1-0.6,0.7c1.3-0.8,0.1-2.9-1.2-2.1c-1.4,0.9-1.2,2.8,0.2,3.5c1.6,0.8,3.9,0.4,5.6,0.3c4.4-0.2,8.8-0.8,13-1.8
				c1.1-0.3,2.2-0.5,3.3-0.9c0.8-0.2,1.6-0.5,2.2-1c1.3-1.2,1.1-3.3,0.8-4.9c-0.4-1.9-1.3-3.5-2.5-4.9c-1.2-1.5-2.6-2.7-3.5-4.4
				C73,42.7,70.9,43.9,71.6,45.3L71.6,45.3z"/>
		</g>
	</g>
	<g>
		<g>
			<path class="st2" d="M63.8,48.9c0.1,0.4,0.2,0.7,0.3,1.1c0,0.2,0.1,0.3,0.2,0.4c0.1,0.1,0.2,0.2,0.3,0.3c0.1,0.1,0.3,0.1,0.5,0.1
				s0.3,0,0.5,0c0.1,0,0.2-0.1,0.3-0.1c0.2-0.1,0.3-0.3,0.4-0.4c0-0.1,0.1-0.2,0.1-0.3c0.1-0.2,0.1-0.4,0-0.6
				c-0.1-0.4-0.2-0.7-0.3-1.1c0-0.2-0.1-0.3-0.2-0.4c-0.1-0.1-0.2-0.2-0.3-0.3c-0.1-0.1-0.3-0.1-0.5-0.1s-0.3,0-0.5,0
				c-0.1,0-0.2,0.1-0.3,0.1c-0.2,0.1-0.3,0.3-0.4,0.4c0,0.1-0.1,0.2-0.1,0.3C63.7,48.5,63.7,48.7,63.8,48.9L63.8,48.9z"/>
		</g>
	</g>
	<g>
		<g>
			<path class="st2" d="M65.2,51.2c1.6,0,1.6-2.4,0-2.4C63.6,48.7,63.6,51.2,65.2,51.2L65.2,51.2z"/>
		</g>
	</g>
	<g>
		<g>
			<path class="st2" d="M65.2,51.2c1.6,0,1.6-2.4,0-2.4C63.6,48.7,63.6,51.2,65.2,51.2L65.2,51.2z"/>
		</g>
	</g>
	<g>
		<g>
			<path class="st2" d="M64.6,51.4c1.6,0,1.6-2.4,0-2.4S63,51.4,64.6,51.4L64.6,51.4z"/>
		</g>
	</g>
	<g>
		<g>
			<path class="st2" d="M63.1,51.4c1.6,0,1.6-2.4,0-2.4S61.5,51.4,63.1,51.4L63.1,51.4z"/>
		</g>
	</g>
	<g>
		<g>
			<path class="st2" d="M66.4,50.5c0-0.1,0.1-0.2,0.1-0.3C66.4,50.3,66.4,50.4,66.4,50.5c0.1-0.4,0.3-0.7,0.6-1
				c-0.1,0.1-0.1,0.2-0.2,0.2c0.3-0.3,0.6-0.7,0.9-0.9c-0.1,0.1-0.2,0.1-0.2,0.2c0.4-0.3,0.8-0.5,1.2-0.7c-0.1,0-0.2,0.1-0.3,0.1
				c0.1,0,0.1,0,0.2-0.1c0.3-0.1,0.6-0.3,0.7-0.6c0.2-0.3,0.2-0.6,0.1-0.9c-0.1-0.3-0.3-0.6-0.6-0.7c-0.3-0.1-0.6-0.2-0.9-0.1
				c-0.9,0.4-1.7,0.8-2.4,1.5c-0.7,0.7-1.1,1.4-1.5,2.3c-0.1,0.3,0,0.7,0.1,0.9c0.1,0.3,0.4,0.5,0.7,0.6c0.3,0.1,0.7,0.1,0.9-0.1
				C66.1,51.1,66.3,50.8,66.4,50.5L66.4,50.5z"/>
		</g>
	</g>
</g>
<path class="st3" d="M49.7,58.2l13.4,13.4l4.9-4.9l11,11L93.7,63"/>
<path class="st3" d="M154.3,70.3l-10.6,10.6l-3.9-3.9l-8.7,8.7l-11.6-11.6"/>
<g>
	<g>
		<path class="st2" d="M64.2,45.1c-0.1,0.3-0.2,0.6-0.3,0.9c0.1-0.1,0.1-0.2,0.2-0.4c-0.3,0.6-0.6,1.2-1,1.7
			c-0.1,0.2-0.2,0.4-0.2,0.6c0,0.2,0,0.4,0,0.6c0.1,0.3,0.4,0.7,0.7,0.9s0.8,0.3,1.2,0.2c0.1-0.1,0.2-0.1,0.4-0.2
			c0.2-0.1,0.4-0.3,0.5-0.5c0.6-0.9,1.1-1.9,1.4-2.9c0.1-0.4,0-0.8-0.2-1.2c-0.2-0.3-0.5-0.6-0.9-0.7c-0.4-0.1-0.8-0.1-1.2,0.2
			C64.6,44.4,64.4,44.7,64.2,45.1L64.2,45.1z"/>
	</g>
</g>
<g>
	<g>
		<path class="st2" d="M71,42.2c0.8,1.2,1.7,2.4,2.5,3.6c0.4,0.6,0.8,1.2,1.2,1.7c0.2,0.3,0.4,0.5,0.5,0.8c0.1,0.1,0.2,0.3,0.2,0.4
			c-0.2-0.3,0,0.2,0.1,0.2c0.2,0.8,1.1,1.3,1.8,1c0.8-0.2,1.3-1,1-1.8c-0.4-1.4-1.4-2.6-2.3-3.8s-1.7-2.5-2.6-3.7
			c-0.4-0.6-1.3-1-2.1-0.5C70.9,40.6,70.5,41.5,71,42.2L71,42.2z"/>
	</g>
</g>
<g>
	<g>
		<path class="st2" d="M72.1,59.1c1.9,0,1.9-3,0-3S70.2,59.1,72.1,59.1L72.1,59.1z"/>
	</g>
</g>
<line class="st4" x1="138.5" y1="53.5" x2="123.5" y2="73.5"/>
<line class="st5" x1="151.5" y1="70" x2="138.5" y2="54"/>
<line class="st4" x1="144.5" y1="76.5" x2="150.5" y2="69.5"/>
<line class="st4" x1="123.5" y1="73.5" x2="130.5" y2="81.5"/>
<line class="st4" x1="139.5" y1="73.5" x2="130.5" y2="81.5"/>
<line class="st4" x1="143.5" y1="76.5" x2="138.5" y2="72.5"/>
<g>
	<g>
		<path class="st2" d="M125.9,75c4.9-5.9,9.6-12,14-18.3c1.1-1.6-1.5-3.1-2.6-1.5c-4.3,6.1-8.8,11.9-13.5,17.6
			c-0.5,0.6-0.6,1.5,0,2.1C124.3,75.5,125.4,75.6,125.9,75L125.9,75z"/>
	</g>
</g>
<g>
	<g>
		<path class="st2" d="M139.5,57.3c-5.1,5.2-9.7,10.8-14.3,16.4c-0.5,0.6-0.6,1.5,0,2.1c0.5,0.5,1.6,0.6,2.1,0
			c4.6-5.6,9.2-11.3,14.3-16.4C143,58.1,140.9,55.9,139.5,57.3L139.5,57.3z"/>
	</g>
</g>
<g>
	<g>
		<path class="st2" d="M125,75.5c0.5,1,1.3,1.8,2.1,2.5c0.4,0.3,0.7,0.6,1.1,1c0.1,0.1,0.2,0.2,0.3,0.3c0,0.1,0.1,0.1,0.1,0.2
			c0.1,0.1-0.2-0.3-0.1-0.1c0.2,0.2,0.3,0.4,0.4,0.7c-0.1-0.1-0.1-0.2-0.2-0.4c0.1,0.1,0.1,0.3,0.1,0.4c0.2,0.8,1.1,1.3,1.8,1
			c0.8-0.3,1.2-1,1-1.8c-0.3-1.3-1.3-2.3-2.3-3.2c-0.4-0.4-0.8-0.7-1.2-1.1c-0.1-0.1-0.2-0.2-0.3-0.3l-0.1-0.1
			c-0.2-0.2,0.2,0.3,0.1,0.1c-0.2-0.2-0.3-0.5-0.4-0.7c-0.1-0.3-0.6-0.6-0.9-0.7c-0.4-0.1-0.8-0.1-1.2,0.2c-0.3,0.2-0.6,0.5-0.7,0.9
			C124.8,74.7,124.8,75.1,125,75.5L125,75.5z"/>
	</g>
</g>
<g>
	<g>
		<path class="st2" d="M132.5,78.6c0.5-0.4,1-0.8,1.5-1.2c-0.1,0.1-0.1,0.1,0,0s0.1-0.1,0.2-0.1c0.1-0.1,0.3-0.2,0.4-0.3
			c0.3-0.2,0.6-0.4,0.8-0.6c1.1-0.8,2.2-1.5,3.3-2.2c0.7-0.4,1-1.4,0.5-2.1c-0.4-0.7-1.3-1-2.1-0.5c-2.4,1.5-4.7,3.2-6.9,5
			c-0.6,0.5-0.6,1.6,0,2.1C131.1,79.2,131.9,79.2,132.5,78.6L132.5,78.6z"/>
	</g>
</g>
<g>
	<g>
		<path class="st2" d="M126.9,75.6c0.3,0.8,0.7,1.5,1.4,2.1c0.8,0.6,2.3,0.6,2.5-0.7c0.4-2.5,0.2-4.9-0.6-7.3
			c-0.9,0.4-1.8,0.8-2.7,1.2c1.2,2.2,2.6,4.2,4.3,6c0.9,1,2.6,0.2,2.6-1.1c0-2-0.6-3.9-1.8-5.6c-0.8-1.1-3-0.9-2.8,0.8
			c0.2,1.5,0.8,2.6,2,3.5c1.2,0.8,2.4-0.5,2.2-1.7c-0.2-1.5-0.8-2.8-1.5-4.1c-1-1.7-3.6-0.2-2.6,1.5c0.8,1.4,2,2.6,3.4,3.5
			c0.9,0.6,2.4-0.2,2.3-1.3c-0.1-1.4-0.6-2.5-1.6-3.5c-1.4-1.3-3.5,0.7-2.1,2.1c1.1,1.1,2.2,2.3,3.2,3.4c1.1,1.2,3.4-0.4,2.4-1.8
			c-1.3-1.8-2.6-3.6-3.9-5.4c-0.8,0.6-1.6,1.2-2.4,1.8c1.6,1.3,3.1,2.7,4.7,4c1.3,1.1,3.1-0.3,2.4-1.8c-0.3-0.6-0.5-1.1-0.8-1.7
			c-0.8,0.6-1.6,1.2-2.4,1.8c1,1,2,2.1,3,3.1c1.3,1.4,3.4-0.7,2.1-2.1c-1.7-1.8-3.4-3.7-5.1-5.5c-0.7,0.7-1.4,1.4-2.1,2.1
			c2,1.7,4,3.3,6.1,4.9c1.5,1.1,2.8-1.1,1.8-2.4c-1.6-1.9-3.1-3.9-4.5-5.9c-0.8,0.6-1.6,1.2-2.4,1.8c2.1,1.8,4.1,3.6,6.2,5.4
			c1.2,1.1,3.4-0.3,2.4-1.8c-1.9-2.9-3.9-5.7-5.8-8.6c-0.8,0.6-1.6,1.2-2.4,1.8c2.5,2.3,4.9,4.6,7.4,6.9c1.2,1.1,3.3-0.3,2.4-1.8
			c-1.7-2.7-3.4-5.3-5.1-8c-1-1.6-3.6-0.1-2.6,1.5c1.6,2.5,3.4,4.9,5.3,7.2c1,1.1,3-0.1,2.5-1.5c-0.7-1.8-1.3-3.6-2-5.4
			c-0.6-1.7-1.4-3.3-1.4-5.1c-1,0.1-2,0.3-2.9,0.4c1.7,4.9,3.4,9.7,5,14.6c0.3,0.8,1,1.3,1.8,1c1.6-0.5,1.9-2.1,1.6-3.5
			c-0.3-1.7-0.8-3.3-1.3-4.9c-1.1-3.3-2.5-6.6-4.2-9.6c-0.9-1.7-3.5-0.2-2.6,1.5c1.3,2.4,2.4,4.8,3.4,7.4c0.4,1.2,0.8,2.5,1.2,3.8
			c0.2,0.6,0.3,1.3,0.5,1.9c0.1,0.2,0.1,0.5,0.2,0.8c0.2,0.4-0.3,0,0.5-0.2c0.6,0.3,1.2,0.7,1.8,1c-1.7-4.9-3.4-9.7-5-14.6
			c-0.5-1.5-3-1.4-2.9,0.4c0.1,2,0.7,3.7,1.4,5.6c0.7,1.9,1.4,3.8,2.1,5.7c0.8-0.5,1.7-1,2.5-1.5c-1.8-2.1-3.4-4.2-4.9-6.6
			c-0.9,0.5-1.7,1-2.6,1.5c1.7,2.7,3.4,5.3,5.1,8c0.8-0.6,1.6-1.2,2.4-1.8c-2.5-2.3-4.9-4.6-7.4-6.9c-1.2-1.1-3.4,0.4-2.4,1.8
			c1.9,2.9,3.9,5.7,5.8,8.6c0.8-0.6,1.6-1.2,2.4-1.8c-2.1-1.8-4.1-3.6-6.2-5.4c-1.2-1.1-3.4,0.3-2.4,1.8c1.5,2.3,3.2,4.4,4.9,6.5
			c0.6-0.8,1.2-1.6,1.8-2.4c-1.9-1.4-3.7-2.9-5.5-4.4c-1.4-1.3-3.4,0.7-2.1,2.1c1.7,1.8,3.4,3.7,5.1,5.5c0.7-0.7,1.4-1.4,2.1-2.1
			c-1-1-2-2.1-3-3.1c-1.2-1.3-3.1,0.3-2.4,1.8c0.3,0.6,0.5,1.1,0.8,1.7c0.8-0.6,1.6-1.2,2.4-1.8c-1.6-1.3-3.1-2.7-4.7-4
			c-1.2-1-3.4,0.3-2.4,1.8c1.3,1.8,2.6,3.6,3.9,5.4c0.8-0.6,1.6-1.2,2.4-1.8c-1.1-1.1-2.2-2.3-3.2-3.4c-0.7,0.7-1.4,1.4-2.1,2.1
			c0.4,0.4,0.7,0.8,0.7,1.4c0.8-0.4,1.5-0.9,2.3-1.3c-1-0.6-1.7-1.4-2.3-2.4c-0.9,0.5-1.7,1-2.6,1.5c0.6,1.1,1,2.2,1.2,3.4
			c0.7-0.6,1.5-1.1,2.2-1.7c-0.3-0.2-0.5-0.5-0.6-0.9c-0.9,0.3-1.9,0.5-2.8,0.8c0.9,1.2,1.3,2.6,1.3,4.1c0.9-0.4,1.7-0.7,2.6-1.1
			c-1.5-1.6-2.8-3.4-3.8-5.4c-0.8-1.5-3.3-0.5-2.7,1.2c0.6,1.8,0.8,3.8,0.6,5.7c0.8-0.2,1.7-0.4,2.5-0.7c-0.3-0.2-0.5-0.4-0.6-0.8
			C129.2,73,126.3,73.7,126.9,75.6L126.9,75.6z"/>
	</g>
</g>
<g>
	<g>
		<path class="st2" d="M142.2,63.2c0.8,2.9,2.1,5.8,3.8,8.3c0.4,0.7,1.4,1,2.1,0.5c0.7-0.4,1-1.3,0.5-2.1c-0.8-1.2-1.5-2.5-2.1-3.8
			c-0.1-0.2-0.2-0.4-0.2-0.5c-0.2-0.4,0.1,0.3-0.1-0.2c-0.1-0.4-0.3-0.7-0.4-1.1c-0.2-0.7-0.5-1.4-0.7-2.1c-0.2-0.8-1.1-1.3-1.8-1
			C142.5,61.6,142,62.4,142.2,63.2L142.2,63.2z"/>
	</g>
</g>
<g>
	<g>
		<path class="st2" d="M143,62.9c1.9,0,1.9-3,0-3S141.1,62.9,143,62.9L143,62.9z"/>
	</g>
</g>
<g>
	<g>
		<path class="st2" d="M147.7,70c1.9,0,1.9-3,0-3S145.8,70,147.7,70L147.7,70z"/>
	</g>
</g>
<g>
	<g>
		<path class="st2" d="M149,71.7c1.9,0,1.9-3,0-3S147.1,71.7,149,71.7L149,71.7z"/>
	</g>
</g>
<g>
	<g>
		<path class="st2" d="M147.3,68.9c1.9,0,1.9-3,0-3C145.4,65.9,145.4,68.9,147.3,68.9L147.3,68.9z"/>
	</g>
</g>
<g>
	<g>
		<path class="st2" d="M146.2,67c1.9,0,1.9-3,0-3S144.3,67,146.2,67L146.2,67z"/>
	</g>
</g>
<g>
	<g>
		<path class="st2" d="M145.2,65.9c1.9,0,1.9-3,0-3C143.2,62.9,143.2,65.9,145.2,65.9L145.2,65.9z"/>
	</g>
</g>
<g>
	<g>
		<path class="st2" d="M142.2,62.5c1.9,0,1.9-3,0-3C140.2,59.5,140.2,62.5,142.2,62.5L142.2,62.5z"/>
	</g>
</g>
<g>
	<g>
		<path class="st2" d="M149,70.7c1.9,0,1.9-3,0-3S147.1,70.7,149,70.7L149,70.7z"/>
	</g>
</g>
<g>
	<g>
		<path class="st2" d="M149.9,71.2c1.9,0,1.9-3,0-3S147.9,71.2,149.9,71.2L149.9,71.2z"/>
	</g>
</g>
<g>
	<g>
		<path class="st2" d="M142.5,63.2c1.9,0,1.9-3,0-3C140.5,60.2,140.5,63.2,142.5,63.2L142.5,63.2z"/>
	</g>
</g>
<rect x="97.8" y="21" class="st6" width="73.7" height="46.1"/>
<text transform="matrix(1 0 0 1 97.7525 55.3568)" class="st7 st8">K</text>
</svg>
