<svg width="1158" height="517" viewBox="0 0 1158 517" fill="none" xmlns="http://www.w3.org/2000/svg">
<path d="M1154.7 514.29L1072.11 408.309L1007.99 359.611L983.005 381.094L940.631 308.047L886.292 246.464L842.831 279.412L773.281 167.698L686.346 61.7166L636.367 110.414L555.951 3L390.787 258.645L342.967 227.848L265.825 342.427L212.001 340.127L108.253 445.543L59.3599 461.293L28.9237 514.29H1154.7Z" fill="#838487" fill-opacity="0.8" stroke="#414042" stroke-width="3" stroke-miterlimit="10"/>
<path d="M1009.62 383.243L1042.78 402.577L1068.85 438.377L1039.24 422.627L1016.69 419.044L1009.62 383.243Z" fill="white"/>
<path d="M905.306 374.646L940.617 383.244L969.953 410.811L972.669 432.646C972.669 432.646 960.718 416.895 953.112 414.029C953.112 414.029 955.285 436.945 962.891 441.96L943.333 438.378L911.281 403.294L905.306 374.646Z" fill="white"/>
<path d="M887.379 275.113L925.964 320.228L934.656 346.714L916.171 340.995H893.898V302.328L884.662 295.163L887.379 275.113Z" fill="white"/>
<path d="M846.091 304.465L836.856 310.913L752.094 179.15L683.63 96.8008L669.505 112.552L670.592 144.77L710.793 184.153L708.62 227.835L748.82 237.866L758.056 245.748L750.993 300.166L763.488 356.733L749.907 394.746L775.203 416.769L821.394 477.157L817.814 457.698L799.886 414.733L799.343 361.748L781.416 318.066C781.416 318.066 791.738 292.284 846.077 367.48L865.634 363.898L837.928 321.648L846.091 304.465Z" fill="white"/>
<path d="M553.778 33.7849V67.436L574.965 91.785V154.801L572.249 179.866L617.339 240.732C617.339 240.732 613.954 290.612 586.777 317.11L589.577 333.427L635.81 360.265V392.546L661.343 383.231L691.765 416.165L685.789 395.399L669.491 356.732V340.982C669.491 340.982 699.914 335.249 720.014 358.882L705.346 325.947L684.703 298.732L685.246 269.368L666.232 247.885L664.602 215.667C664.602 215.667 634.18 174.85 615.709 162.682L614.079 149.798C614.079 149.798 622.228 140.483 632.55 151.231C642.872 161.966 642.329 162.682 642.329 162.682L632.007 138.333L553.778 33.7849Z" fill="white"/>
<path d="M489.674 303.76L492.209 327.632L489.674 338.128H450.198C450.198 338.128 457.079 397.8 492.209 411.653H516.837C516.837 411.653 562.108 448.886 574.436 451.752L570.814 456.529H545.1L522.283 438.39L503.088 461.784C503.088 461.784 471.217 436.957 442.23 436.957L438.608 387.304L402.029 360.089L392.612 346.249L390.077 314.257H357.12V279.889C357.12 279.889 354.585 271.291 348.79 268.438L347.341 253.642L407.113 290.398H429.206L439.346 285.144C439.318 285.131 467.93 281.322 489.674 303.76Z" fill="white"/>
<path d="M184.685 386.826L208.588 357.7L258.93 364.865L285.731 393.036C285.731 393.036 281.022 414.996 295.509 427.881L321.948 451.752V464.159L273.779 425.492L250.6 421.193L223.437 385.87L184.685 386.826Z" fill="white"/>
<path d="M382.458 471.802L379.923 452.707C379.923 452.707 363.987 421.671 329.219 406.398L320.164 410.936L368.333 464.159C368.333 464.159 377.749 466.07 382.458 471.802Z" fill="white"/>
<path d="M6.17676 512.858L31.0133 469.603L65.9766 458.34L132.922 376.268L178.152 384.35L233.536 302.102L267.385 323.899L385.369 141.288L443.024 218.307L478.335 183.914L542.606 262.266L589.967 338.33L620.306 315.339L661.259 361.761L689.327 410.132L705.959 395.827L754.142 432.432L816.825 512.858H6.17676Z" fill="#838487" fill-opacity="0.8"/>
<path d="M385.578 147.196L442.592 223.36L478.029 188.829L539.667 263.975L588.978 343.182L619.79 319.826L658.32 363.496L688.366 415.286L706.084 400.05L751.537 434.581L810.097 509.728H11.9018L33.4788 472.155L68.1496 460.979L134.413 379.737L179.865 387.857L234.567 306.614L268.471 328.449L385.578 147.196ZM385.146 135.38L379.56 144.016L266.298 319.323L238.62 301.498L232.519 297.564L228.619 303.346L176.438 380.83L135.75 373.564L131.404 372.785L128.785 376.003L63.7896 455.687L31.1247 466.209L28.5477 467.038L27.2801 469.238L5.71706 506.824L0.45166 516H11.9018H810.111H823.525L815.808 506.095L757.248 430.949L756.732 430.282L756.036 429.754L710.584 395.223L705.806 391.603L701.293 395.487L690.26 404.965L664.491 360.567L664.184 360.039L663.766 359.574L625.237 315.904L620.779 310.851L615.305 314.999L590.914 333.477L545.727 260.883L545.518 260.544L545.253 260.229L483.614 185.083L478.614 178.987L472.903 184.543L443.428 213.254L391.331 143.664L385.146 135.38Z" fill="#838487" fill-opacity="0.8"/>
<path d="M707.254 416.807L730.754 430.508L749.252 455.901L728.246 444.726L712.269 442.186L707.254 416.807Z" fill="white"/>
<path d="M633.288 410.71L658.334 416.807L679.131 436.354L681.053 451.84C681.053 451.84 672.584 440.665 667.179 438.641C667.179 438.641 668.725 454.895 674.116 458.44L660.242 455.901L637.509 431.024L633.288 410.71Z" fill="white"/>
<path d="M620.584 340.127L647.928 372.119L654.099 390.912L640.991 386.839H625.195V359.423L618.648 354.344L620.584 340.127Z" fill="white"/>
<path d="M591.304 360.944L584.757 365.519L524.665 272.096L476.12 213.706L466.105 224.881L466.871 247.734L495.385 275.666L493.839 306.639L522.353 313.742L528.9 319.323L523.885 357.914L532.744 398.027L533.134 424.424L528.9 434.581L570.898 482.311L571.288 469.615L558.57 439.157L558.18 401.584L545.462 370.61C545.462 370.61 552.775 352.333 591.304 405.644L605.178 403.105L585.538 373.15L591.304 360.944Z" fill="white"/>
<path d="M384.046 169.031V192.889L399.076 210.149V254.824L397.153 272.599L429.122 315.753C429.122 315.753 432.98 346.727 413.716 365.507L414.482 374.143L442.216 401.056V423.394L460.324 416.794L481.901 440.15L477.667 425.43L466.105 398.014V386.839C466.105 386.839 487.682 382.779 501.932 399.535L491.527 376.179L476.887 356.884L477.277 336.067L463.793 320.832L462.637 297.978C462.637 297.978 441.06 269.041 427.966 260.405L426.81 251.267C426.81 251.267 432.59 244.667 439.903 252.285C447.216 259.903 446.84 260.405 446.84 260.405L439.527 243.146L384.046 169.031Z" fill="white"/>
<path d="M338.579 360.441L340.376 377.361L338.579 384.803H310.581C310.581 384.803 315.456 427.115 340.376 436.933H357.844C357.844 436.933 389.952 463.33 398.686 465.367L396.122 468.748H377.889L361.702 455.889L348.093 472.469C348.093 472.469 325.499 454.871 304.953 454.871L302.39 419.673L276.453 400.378L269.781 390.56L267.984 367.883H244.61V343.509C244.61 343.509 242.813 337.412 238.704 335.388L237.673 324.892L280.047 350.951H295.718L302.905 347.23C302.892 347.242 323.173 344.527 338.579 360.441Z" fill="white"/>
<path d="M122.336 419.334L139.288 398.68L174.99 403.759L193.99 423.733C193.99 423.733 190.647 439.308 200.927 448.447L219.676 465.367V474.166L185.521 446.75L169.084 443.708L149.819 418.655L122.336 419.334Z" fill="white"/>
<path d="M262.565 479.596L260.769 466.058C260.769 466.058 249.472 444.06 224.816 433.224L218.395 436.442L252.55 474.178C252.55 474.178 259.222 475.523 262.565 479.596Z" fill="white"/>
<path d="M816.908 513.813L754.225 431.2L706.864 396.317L688.756 411.011L660.897 361.434L619.108 315.539L589.855 337.575L542.495 262.303L478.419 185.196L443.594 218.231L386.483 142.959" stroke="#FF0000" stroke-width="10" stroke-miterlimit="10"/>
<path d="M387.375 149.483C386.175 149.483 385.202 148.511 385.202 147.311V72.5034C385.202 71.3034 386.175 70.3313 387.375 70.3313C388.576 70.3313 389.549 71.3034 389.549 72.5034V147.311C389.549 148.511 388.576 149.483 387.375 149.483Z" fill="#414042"/>
<path d="M429.864 109.9H387.375V72.5034H429.864L421.518 91.2015L429.864 109.9Z" fill="#FF958A"/>
<path d="M429.955 112.072C429.94 112.072 429.894 112.072 429.864 112.072H387.375C386.175 112.072 385.202 111.1 385.202 109.9V72.5034C385.202 71.3034 386.175 70.3313 387.375 70.3313H429.864C430.593 70.3313 431.293 70.711 431.688 71.3186C432.083 71.9414 432.144 72.716 431.855 73.3844L423.89 91.2015L431.627 108.517C431.931 108.897 432.129 109.368 432.129 109.9C432.129 111.1 431.156 112.072 429.955 112.072ZM389.549 107.727H426.519L419.527 92.0825C419.283 91.5204 419.283 90.8673 419.527 90.3053L426.519 74.6603H389.549V107.727Z" fill="#414042"/>
<path d="M479.205 147.001C471.483 146.892 465.119 153.153 465.001 160.998C464.933 165.891 467.305 170.23 470.976 172.845L478.609 188L486.682 173.082C490.421 170.586 492.92 166.307 492.998 161.424C493.116 153.569 486.936 147.12 479.205 147.001ZM478.893 168.734C474.793 168.674 471.522 165.257 471.581 161.087C471.639 156.927 475.017 153.608 479.117 153.668C483.217 153.727 486.487 157.154 486.429 161.315C486.36 165.475 482.992 168.803 478.893 168.734Z" fill="white" stroke="black" stroke-miterlimit="10"/>
<path d="M543.205 222.001C535.474 221.895 529.109 228.003 529.001 235.656C528.933 240.43 531.305 244.663 534.976 247.214L542.609 262L550.682 247.446C554.421 245.011 556.92 240.836 556.998 236.072C557.116 228.408 550.936 222.117 543.205 222.001ZM542.893 243.204C538.793 243.146 535.522 239.812 535.581 235.743C535.639 231.685 539.017 228.447 543.117 228.505C547.217 228.563 550.487 231.907 550.429 235.966C550.36 240.024 546.992 243.271 542.893 243.204Z" fill="white" stroke="black" stroke-miterlimit="10"/>
<path d="M590.205 296.001C582.474 295.895 576.109 302.003 576.001 309.656C575.933 314.43 578.305 318.663 581.976 321.214L589.609 336L597.682 321.446C601.421 319.011 603.92 314.836 603.998 310.072C604.116 302.408 597.936 296.117 590.205 296.001ZM589.893 317.204C585.793 317.146 582.522 313.812 582.581 309.743C582.639 305.685 586.017 302.447 590.117 302.505C594.217 302.563 597.487 305.907 597.429 309.966C597.36 314.024 593.992 317.271 589.893 317.204Z" fill="white" stroke="black" stroke-miterlimit="10"/>
<path d="M681.205 355.001C673.474 354.895 667.109 361.003 667.001 368.656C666.933 373.43 669.305 377.663 672.976 380.214L680.609 395L688.682 380.446C692.421 378.011 694.92 373.836 694.998 369.072C695.116 361.409 688.936 355.117 681.205 355.001ZM680.893 376.204C676.793 376.146 673.522 372.812 673.581 368.743C673.639 364.685 677.017 361.447 681.117 361.505C685.217 361.563 688.487 364.907 688.429 368.966C688.36 373.024 684.993 376.271 680.893 376.204Z" fill="white" stroke="black" stroke-miterlimit="10"/>
</svg>
