<svg width="81" height="76" viewBox="0 0 81 76" fill="none" xmlns="http://www.w3.org/2000/svg">
<path d="M39.9053 52.8414C48.1031 52.8414 54.7487 46.2476 54.7487 38.1137C54.7487 29.9798 48.1031 23.386 39.9053 23.386C31.7076 23.386 25.062 29.9798 25.062 38.1137C25.062 46.2476 31.7076 52.8414 39.9053 52.8414Z" stroke="#E4C41F" stroke-width="4" stroke-miterlimit="10"/>
<path d="M38.4695 1.26813C38.4695 6.06951 38.4695 10.8709 38.4695 15.6723C38.4695 17.3602 41.1122 17.3602 41.1122 15.6723C41.1122 10.8709 41.1122 6.06951 41.1122 1.26813C41.1122 -0.41979 38.4695 -0.41979 38.4695 1.26813Z" fill="#E4C41F"/>
<path d="M63.2055 39.4343C68.7112 39.4343 74.2169 39.4343 79.7226 39.4343C81.4228 39.4343 81.4228 36.8106 79.7226 36.8106C74.2169 36.8106 68.7112 36.8106 63.2055 36.8106C61.5053 36.8106 61.4965 39.4343 63.2055 39.4343Z" fill="#E4C41F"/>
<path d="M1.27732 39.3643C6.78303 39.3643 12.2887 39.3643 17.7945 39.3643C19.4946 39.3643 19.4946 36.7406 17.7945 36.7406C12.2887 36.7406 6.78303 36.7406 1.27732 36.7406C-0.422844 36.7406 -0.422844 39.3643 1.27732 39.3643Z" fill="#E4C41F"/>
<path d="M38.4342 60.3277C38.4342 65.1291 38.4342 69.9305 38.4342 74.7319C38.4342 76.4198 41.0769 76.4198 41.0769 74.7319C41.0769 69.9305 41.0769 65.1291 41.0769 60.3277C41.0769 58.6398 38.4342 58.6311 38.4342 60.3277Z" fill="#E4C41F"/>
<path d="M68.8874 10.8621C65.5135 14.2992 62.1308 17.745 58.7569 21.182C57.5677 22.3889 59.4352 24.2518 60.6244 23.0361C63.9983 19.5991 67.381 16.1533 70.7549 12.7162C71.9442 11.5093 70.0766 9.64649 68.8874 10.8621Z" fill="#E4C41F"/>
<path d="M21.6176 53.4624C18.2437 56.8994 14.861 60.3452 11.4871 63.7823C10.2979 64.9892 12.1654 66.852 13.3546 65.6364C16.7285 62.1993 20.1113 58.7535 23.4852 55.3165C24.6744 54.1096 22.8069 52.2467 21.6176 53.4624Z" fill="#E4C41F"/>
<path d="M69.1605 61.386C65.4342 58.3162 61.7168 55.2465 57.9905 52.1768C57.4444 51.722 56.6603 51.6433 56.123 52.1768C55.6561 52.6403 55.568 53.5761 56.123 54.0308C59.8492 57.1006 63.5667 60.1703 67.293 63.24C67.8391 63.6948 68.6231 63.7735 69.1605 63.24C69.6274 62.7765 69.7067 61.8407 69.1605 61.386Z" fill="#E4C41F"/>
<path d="M23.3882 20.8847C19.662 17.815 15.9445 14.7452 12.2182 11.6755C11.6721 11.2207 10.8881 11.142 10.3507 11.6755C9.88382 12.139 9.79573 13.0748 10.3507 13.5296C14.077 16.5993 17.7944 19.669 21.5207 22.7388C22.0669 23.1936 22.8509 23.2723 23.3882 22.7388C23.8551 22.2753 23.9432 21.3395 23.3882 20.8847Z" fill="#E4C41F"/>
</svg>
