<svg width="103" height="102" viewBox="0 0 103 102" fill="none" xmlns="http://www.w3.org/2000/svg">
<path d="M3.2046 58.6202C2.95301 64.7131 3.65186 71.0855 7.03437 76.1442C8.71165 78.6596 10.976 80.6999 13.2403 82.6564C23.0524 91.0131 34.6815 98.3076 47.5686 98.9225C54.2218 99.2579 60.7911 97.7766 67.2766 96.3512C71.7773 95.3451 76.3618 94.311 80.3594 92.0192C84.5805 89.6156 87.935 85.9543 90.6466 81.9297C101.074 66.5298 101.996 45.2327 92.9669 28.9944C84.1332 13.1195 67.6959 4.59501 50.0845 2.75038C34.0386 1.07345 18.7194 17.2559 11.4233 30.1682C6.55916 38.8324 3.59597 48.6424 3.2046 58.6202Z" fill="#F4EDED" fill-opacity="0.6"/>
<path d="M59.4772 1.40909C38.623 -4.62786 20.9837 9.70988 9.85773 25.8364C-2.35844 43.5839 -4.09161 65.6914 9.60615 83.2433C22.3255 99.5654 44.9687 105.519 64.5649 99.9846C84.8879 94.2551 104.54 77.0666 102.667 54.428C101.689 42.6615 96.9643 30.6156 89.8079 21.2247C82.1204 11.1352 71.2461 5.46168 59.4772 1.40909C56.4581 0.374984 55.1442 5.15413 58.1633 6.18824C67.1927 9.29056 75.9984 13.3991 82.6795 20.4143C89.3048 27.3736 93.6936 36.5128 96.1536 45.736C98.8093 55.6578 98.7534 66.3064 92.6593 74.9705C87.292 82.6285 79.1852 88.6654 70.715 92.4944C53.8304 100.124 32.9203 98.2519 18.7753 85.7588C4.29477 72.9861 0.856333 52.3878 9.80181 35.4508C18.8591 18.2622 36.8898 0.0394881 58.1633 6.18824C61.2383 7.0826 62.5522 2.30346 59.4772 1.40909Z" fill="black"/>
<path d="M38.7624 46.2391C49.1895 38.8606 59.5886 31.5101 70.0157 24.1316C68.8136 23.2093 67.5836 22.259 66.3816 21.3367C64.0893 33.2709 61.7691 45.2328 59.4768 57.167C58.8618 60.2972 63.642 61.6109 64.257 58.4806C66.5493 46.5465 68.8695 34.5844 71.1618 22.6502C71.5252 20.7497 69.4286 18.4859 67.5277 19.8554C57.1006 27.2339 46.7015 34.5843 36.2744 41.9628C33.6747 43.8074 36.1347 48.1116 38.7624 46.2391Z" fill="black"/>
<path d="M35.4084 43.3323C32.6968 54.6515 30.2927 66.0266 28.1962 77.4857C27.8327 79.498 29.8734 81.5103 31.8303 80.2805C42.2014 73.8803 52.6285 67.5359 63.0835 61.3033C65.823 59.6823 63.3351 55.3781 60.5676 57.0271C50.1126 63.2876 39.6855 69.6042 29.3143 76.0045C30.5164 76.9268 31.7464 77.877 32.9484 78.7993C35.045 67.3403 37.4212 55.965 40.1607 44.6458C40.9434 41.5434 36.1632 40.2299 35.4084 43.3323Z" fill="black"/>
<path d="M45.3038 4.09267C45.2758 7.22299 45.4435 10.3254 45.8349 13.4278C46.0026 14.7694 46.8692 15.8874 48.3229 15.9153C49.5249 15.9153 50.9786 14.7694 50.8108 13.4278C50.4195 10.3254 50.2517 7.22299 50.2797 4.09267C50.3076 0.906449 45.3597 0.906449 45.3038 4.09267Z" fill="black"/>
<path d="M50.4756 85.6189C50.8949 90.1466 51.1185 94.6743 51.1745 99.202C51.2024 102.388 56.1504 102.388 56.1224 99.202C56.0945 94.6743 55.8708 90.1466 55.4236 85.6189C55.144 82.4607 50.1681 82.4327 50.4756 85.6189Z" fill="black"/>
<path d="M90.6744 54.6236C93.8891 54.0087 97.0759 53.394 100.291 52.7791C103.422 52.1922 102.108 47.413 98.9768 47.9999C95.7621 48.6148 92.5753 49.2295 89.3605 49.8444C86.2296 50.4313 87.5435 55.2105 90.6744 54.6236Z" fill="black"/>
<path d="M3.59564 55.0424C7.73292 54.4555 11.8702 53.8406 16.0075 53.2536C19.1664 52.8064 17.8245 48.0271 14.6936 48.4743C10.5563 49.0612 6.41905 49.6762 2.28177 50.2631C-0.877097 50.7103 0.464726 55.4896 3.59564 55.0424Z" fill="black"/>
<path d="M45.5279 43.8358C40.3283 45.317 39.909 51.9128 41.8379 56.161C44.0184 60.9682 50.0845 61.1638 53.6906 57.8659C56.8215 54.9872 57.772 49.8446 55.4797 46.1554C52.852 41.9072 47.0654 41.7956 43.5711 44.9258C41.1949 47.0499 44.7172 50.5714 47.0654 48.4194C50.4199 45.4009 52.9079 50.5713 51.007 53.3941C50.1404 54.6798 47.9599 56.0772 46.5902 54.5959C45.5838 53.5339 44.9968 49.1181 46.8138 48.5871C49.9168 47.7207 48.6029 42.9414 45.5279 43.8358Z" fill="black"/>
<path d="M35.7994 45.3724C37.8122 47.1053 39.9647 48.6424 42.257 50.0119C45.0245 51.6329 47.5124 47.3568 44.7729 45.7358C42.844 44.5899 41.0269 43.3322 39.3217 41.8788C38.3153 41.0124 36.8058 40.8727 35.8274 41.8788C34.9049 42.7453 34.7651 44.506 35.7994 45.3724Z" fill="black"/>
<path d="M52.4605 56.3003C54.8646 58.4803 57.5763 60.0736 60.6513 61.1356C63.6704 62.1697 64.9842 57.3904 61.9651 56.3562C59.7288 55.6016 57.716 54.3718 55.9549 52.8066C53.6346 50.6825 50.1123 54.1762 52.4605 56.3003Z" fill="black"/>
</svg>
