<svg width="102" height="93" viewBox="0 0 102 93" fill="none" xmlns="http://www.w3.org/2000/svg">
<path d="M17.3775 83.4362L38.7446 62.0676C40.4774 63.8001 43.2857 63.8001 45.0138 62.0676C46.7467 60.335 46.7467 57.5318 45.0138 55.7992L36.5374 47.3241L2.6272 81.2293L11.1036 89.7045C12.8364 91.4324 15.6447 91.4323 17.3728 89.6998C19.1104 87.9766 19.1104 85.1641 17.3775 83.4362Z" stroke="black" stroke-width="3" stroke-miterlimit="10" stroke-linecap="round" stroke-linejoin="round"/>
<path d="M84.0899 31.4587C60.774 36.7409 48.5736 48.9395 43.3657 54.1467L37.9746 48.7564C43.6521 43.0797 56.942 29.7918 82.4087 24.0259" stroke="black" stroke-width="3" stroke-miterlimit="10" stroke-linecap="round" stroke-linejoin="round"/>
<path d="M91.5943 33.5249C87.5463 34.6095 83.3903 32.2102 82.3055 28.1628C81.2207 24.1201 83.6251 19.96 87.6684 18.8706C91.7164 17.7907 95.8771 20.19 96.9572 24.2375C98.042 28.2849 95.6423 32.4403 91.5943 33.5249Z" stroke="black" stroke-width="3" stroke-miterlimit="10" stroke-linecap="round" stroke-linejoin="round"/>
<path d="M92.3078 19.1052L85.63 2L80.995 3.23955L83.7657 21.3966" stroke="black" stroke-width="3" stroke-miterlimit="10" stroke-linecap="round" stroke-linejoin="round"/>
<path d="M86.9497 33.2665C86.9497 33.2665 98.8824 56.6635 91.101 72.9376L92.7306 73.7875C108.307 54.4332 95.4918 30.9799 95.4918 30.9799" stroke="black" stroke-width="3" stroke-miterlimit="10" stroke-linecap="round" stroke-linejoin="round"/>
<path d="M75.565 41.3625L76.9221 42.7195C83.7784 49.5747 85.9808 61.8484 81.9422 70.6616L76.7249 82.0291C75.8467 83.9448 74.715 85.6023 73.3578 86.9592C67.8963 92.4199 59.6313 92.0819 53.7095 86.161L6.67851 39.1463C0.756781 33.2254 0.418674 24.9616 5.88019 19.5009C7.23735 18.1439 8.89976 17.0123 10.8158 16.1343L22.1802 10.9224C30.9947 6.87974 43.2702 9.08186 50.1264 15.9371L53.8692 19.684L75.565 41.3625ZM47.8019 25.7457L44.0544 22.0035C39.7904 17.7401 31.2436 16.2047 25.7586 18.7168L14.3894 23.9333C13.4033 24.3888 12.5768 24.9381 11.9475 25.5673C9.84365 27.6661 10.1442 30.474 12.7458 33.0752L59.7769 80.0899C62.3785 82.6911 65.1867 82.9916 67.2858 80.8881C67.9151 80.2542 68.4692 79.4326 68.9201 78.4465L74.1374 67.079C76.6545 61.5995 75.1142 53.0493 70.8501 48.7859L69.493 47.4289" fill="#C4C4C4" fill-opacity="0.5"/>
<path d="M47.8019 25.7457L44.0544 22.0035C39.7904 17.7401 31.2436 16.2047 25.7586 18.7168L14.3894 23.9333C13.4033 24.3888 12.5768 24.9381 11.9475 25.5673C9.84365 27.6661 10.1442 30.474 12.7458 33.0752L59.7769 80.0899C62.3785 82.6911 65.1867 82.9916 67.2858 80.8881C67.9151 80.2542 68.4692 79.4326 68.9201 78.4465L74.1374 67.079C76.6545 61.5995 75.1142 53.0493 70.8501 48.7859L69.493 47.4289M75.565 41.3625L76.9221 42.7195C83.7784 49.5747 85.9808 61.8484 81.9422 70.6616L76.7249 82.0291C75.8467 83.9448 74.715 85.6023 73.3578 86.9592C67.8963 92.4199 59.6313 92.0819 53.7095 86.161L6.67851 39.1463C0.756781 33.2254 0.418674 24.9616 5.88019 19.5009C7.23735 18.1439 8.89976 17.0123 10.8158 16.1343L22.1802 10.9224C30.9947 6.87974 43.2702 9.08186 50.1264 15.9371L53.8692 19.684L75.565 41.3625Z" stroke="black" stroke-width="3" stroke-miterlimit="10" stroke-linecap="round" stroke-linejoin="round"/>
<path d="M18.2543 50.7158L24.3263 44.6447" stroke="black" stroke-width="3" stroke-miterlimit="10" stroke-linecap="round" stroke-linejoin="round"/>
<path d="M22.6311 55.0917L28.7031 49.0253" stroke="black" stroke-width="3" stroke-miterlimit="10" stroke-linecap="round" stroke-linejoin="round"/>
<path d="M27.0125 59.4726L33.0797 53.4015" stroke="black" stroke-width="3" stroke-miterlimit="10" stroke-linecap="round" stroke-linejoin="round"/>
<path d="M31.3894 63.8485L37.4614 57.7773" stroke="black" stroke-width="3" stroke-miterlimit="10" stroke-linecap="round" stroke-linejoin="round"/>
<path d="M35.7659 68.2247L41.8332 62.1536" stroke="black" stroke-width="3" stroke-miterlimit="10" stroke-linecap="round" stroke-linejoin="round"/>
<path d="M40.1428 72.6009L46.2101 66.5298" stroke="black" stroke-width="3" stroke-miterlimit="10" stroke-linecap="round" stroke-linejoin="round"/>
<path d="M55.6146 17.9365L46.6577 26.8895L68.3447 48.5794L77.3016 39.6264L55.6146 17.9365Z" stroke="black" stroke-width="3" stroke-miterlimit="10" stroke-linecap="round" stroke-linejoin="round"/>
<path d="M53.2584 28.1224L55.2308 30.0992" stroke="black" stroke-width="3" stroke-miterlimit="10" stroke-linecap="round" stroke-linejoin="round"/>
<path d="M56.8463 24.5303L58.8234 26.5117" stroke="black" stroke-width="3" stroke-miterlimit="10" stroke-linecap="round" stroke-linejoin="round"/>
<path d="M59.1989 34.062L61.1759 36.0388" stroke="black" stroke-width="3" stroke-miterlimit="10" stroke-linecap="round" stroke-linejoin="round"/>
<path d="M62.7867 30.4747L64.7638 32.4515" stroke="black" stroke-width="3" stroke-miterlimit="10" stroke-linecap="round" stroke-linejoin="round"/>
<path d="M65.139 40.0062L67.1207 41.983" stroke="black" stroke-width="3" stroke-miterlimit="10" stroke-linecap="round" stroke-linejoin="round"/>
<path d="M68.7316 36.4146L70.7086 38.3913" stroke="black" stroke-width="3" stroke-miterlimit="10" stroke-linecap="round" stroke-linejoin="round"/>
</svg>
